<?xml version="1.0" encoding="UTF-8" standalone="no"?>
<svg
   width="189.5528"
   height="44.79512"
   version="1.1"
   viewBox="0 0 189.55279 44.79512"
   id="svg84"
   xmlSpace="preserve"
   xmlns="http://www.w3.org/2000/svg"
   xmlnsSvg="http://www.w3.org/2000/svg"><defs
     id="defs88"><rect
       x="48.924992"
       y="9.4650526"
       width="86.518578"
       height="23.062735"
       id="rect2942" /><filter
       id="filter0_d_503_3486"
       x="1.33331"
       y="1.33333"
       width="9.3333101"
       height="7.6666698"
       filterUnits="userSpaceOnUse"
       color-interpolation-filters="sRGB"><feFlood
         flood-opacity="0"
         result="BackgroundImageFix"
         id="feFlood362" /><feColorMatrix
         in="SourceAlpha"
         type="matrix"
         values="0 0 0 0 0 0 0 0 0 0 0 0 0 0 0 0 0 0 127 0"
         result="hardAlpha"
         id="feColorMatrix364" /><feOffset
         dy="1"
         id="feOffset366" /><feColorMatrix
         type="matrix"
         values="0 0 0 0 0 0 0 0 0 0 0 0 0 0 0 0 0 0 0.06 0"
         id="feColorMatrix368" /><feBlend
         mode="normal"
         in2="BackgroundImageFix"
         result="effect1_dropShadow_503_3486"
         id="feBlend370" /><feBlend
         mode="normal"
         in="SourceGraphic"
         in2="effect1_dropShadow_503_3486"
         result="shape"
         id="feBlend372" /></filter><linearGradient
       id="paint0_linear_503_3486"
       x1="1.33331"
       y1="1.33333"
       x2="1.33331"
       y2="7.99999"
       gradientUnits="userSpaceOnUse"><stop
         stop-color="white"
         id="stop375" /><stop
         offset="1"
         stop-color="#F0F0F0"
         id="stop377" /></linearGradient><clipPath
       id="clip0_503_3486"><rect
         width="28"
         height="20"
         rx="2"
         fill="#ffffff"
         id="rect380"
         x="0"
         y="0" /></clipPath></defs><g
     transform="translate(-75.3,-76.6291)"
     id="g82"><g
       transform="translate(-30.15,-3.6669)"
       id="g14"><path
         d="m 116.41,122.17 1.0928,-1.2059 0.95,0.9164 c 0.5225,0.50401 1.31,0.91639 1.75,0.91639 h 0.8 v -11 h 9.4249 l 4.0751,-4.8766 80.25,-0.31171 c 44.138,-0.17143 80.25,-0.20794 80.25,-0.0811 -2e-5,0.12682 -1.575,2.6927 -3.5,5.702 l -3.5,5.4714 v 4.2141 l 2,-1.2361 v 1.059 c 0,1.4627 6.486,1.3527 -88.593,1.5025 l -86.093,0.13561 z m 19.869,-27.123 c 0.31657,-5.9125 0.88213,-11.537 1.2568,-12.5 0.7889,-2.0266 3.0681,-2.3261 3.805,-0.5 l 0.50439,1.25 0.0789,-1.25 0.079,-1.25 h 1.393 c 1.6834,0 2.607,2.1546 2.607,6.0818 v 2.9182 h 1.8904 l 0.74908,9.5 0.3605,-11.5 h 5.104 l 1.0458,-3 c 1.0749,-3.0834 2.2529,-3.7754 3.3647,-1.9765 l 0.63254,1.0235 11.768,-0.46476 1.5814,1.5813 -3.4969,2.557 v 18.28 h -33.3 z m 33.724,6.25 v -4.5 l 20.5,-0.36676 -16,-1.2665 15.333,-0.36676 0.75976,-2.2793 15.407,-0.13693 0.116,-3.0419 0.116,-3.0419 0.42294,2 c 0.23261,1.1 0.63898,3.0125 0.90305,4.25 l 0.48011,2.25 h 4.8523 l 0.74908,-9.5 0.3605,9.5 h 31.89 l 0.74908,-9.5 0.3605,9.5 2.5,0.03062 -3,1.9388 12.25,0.01531 22.564,0.01532 v 9 h -111.31 z m 42.269,-5.1559 c -0.67703,-0.27392 -2.027,-0.2906 -3,-0.03705 l -1.769,0.46099 6,0.0741 z m 25.981,-0.08805 c -4.5375,-0.18529 -11.962,-0.18529 -16.5,0 l -8.25,0.3369 h 33 z"
         fill="#bfbfbf"
         id="path2" /><path
         d="m 116.73,122.68 c 0.67834,-0.68342 1.4852,-0.99067 1.7931,-0.68278 0.3079,0.30789 -0.24711,0.86705 -1.2333,1.2426 l -1.7931,0.68278 z m 4.2667,-5.0842 v -5.7917 h 9.7561 l 2.8653,-4.3153 160.38,-0.96319 -0.004,0.88926 c -0.003,0.4891 -1.3507,2.9143 -2.996,5.3893 l -2.9914,4.5 -0.004,2.309 -0.004,2.309 2.5,-1.502 -2.5053,3.0953 -45.495,-0.2304 -2.3618,-1.5136 -1.0366,1.6773 -39.602,-0.14466 -2.3618,-1.5326 -1.0999,1.7797 -4.2691,-0.13398 c -2.348,-0.0737 -4.8005,-0.47413 -5.45,-0.88986 l -1.1809,-0.75588 -1.0849,1.7554 -33.887,-0.2228 -0.7411,-0.74132 -0.74109,-0.74133 -2.8464,2.3623 -1.7905,-1.1182 -1.7905,-1.1182 -2.3066,2.3066 -3.8574,-2.409 -1.0818,1.7504 -14.011,-0.20797 z m 15,-19.233 v -7.441 l 2.162,-1.3362 -0.62142,-2.4759 c -0.34178,-1.3618 -0.34792,-3.3377 -0.0136,-4.3909 l 0.60775,-1.915 h 1.3493 c 0.74211,0 1.5763,0.5625 1.8537,1.25 l 0.50439,1.25 0.0789,-1.25 0.079,-1.25 h 3 v 8.9006 l 2.8511,1.5994 0.40635,4 0.40634,4 0.16811,-5.75 0.1681,-5.75 h 5.75 l 1.2,-6 h 1.025 c 0.56375,0 1.025,0.46366 1.025,1.0304 v 1.0303 l 12.033,-0.36106 1.467,1.5742 -2.5,0.89286 v 19.833 h -33 z m 34,2.941 v -4.5 h 20 v -4 l 3.25,-0.14246 c 3.3175,-0.14542 5.7455,-0.13661 11.5,0.04174 l 3.25,0.10072 v 4 h 73.314 v 9 h -111.31 z"
         fill="#a3a3a3"
         id="path4" /><path
         d="m 121.68,123.15 c -0.37583,-0.37583 -0.68333,-3.0833 -0.68333,-6.0167 V 111.8 h 9.7561 l 1.4269,-2.1491 1.427,-2.1491 80.195,-0.49251 c 44.107,-0.27088 80.195,-0.23604 80.195,0.0774 0,0.31347 -1.6148,3.2807 -3.5885,6.5939 l -3.5885,6.024 1.3152,2.128 1.1809,-0.65717 c 0.64949,-0.36145 0.38613,0.18491 -0.58527,1.2141 l -1.7662,1.8713 -3.711,-2.3176 -2.3066,2.3066 -3.8574,-2.409 -0.51709,0.83666 -0.51708,0.83667 h -16.117 l -0.51708,-0.83667 -0.51709,-0.83666 -3.8574,2.409 -2.3066,-2.3066 -3.6934,2.3066 -2.3066,-2.3066 -3.6934,2.3066 -2.3066,-2.3066 -3.6934,2.3066 -2.3066,-2.3066 -1.7905,1.1182 -1.7905,1.1182 -2.8464,-2.3623 -0.73899,0.739 c -0.40645,0.40644 -4.3043,0.80667 -8.662,0.88939 l -7.923,0.15041 -0.54239,-0.8776 -0.54238,-0.87759 -3.8574,2.409 -2.3066,-2.3066 -3.6934,2.3066 -2.3066,-2.3066 -3.6934,2.3066 -2.3066,-2.3066 -1.7905,1.1182 -1.7905,1.1182 -2.81,-2.3321 -2.4023,2.4023 -3.6934,-2.3066 -2.3066,2.3066 -3.8574,-2.409 -1.1109,1.7974 -4.9161,-0.17768 c -2.7038,-0.0977 -5.2233,-0.48487 -5.5987,-0.86034 l -0.68267,-0.68267 -3.7345,2.3322 -2.3066,-2.3066 -3.6934,2.3066 -2.3066,-2.3066 -3.6934,2.3066 -2.3066,-2.3066 -1.7905,1.1182 -1.7905,1.1182 -2.81,-2.3321 -2.4023,2.4023 -3.6934,-2.3066 -2.3066,2.3066 -3.6934,-2.3066 -1.89,1.89 z m 14.317,-24.791 v -7.441 l 2.162,-1.3362 -0.62142,-2.4759 c -0.34178,-1.3618 -0.34792,-3.3377 -0.0136,-4.3909 l 0.60775,-1.915 h 1.3493 c 0.74211,0 1.5763,0.5625 1.8537,1.25 l 0.50439,1.25 0.0789,-1.25 0.079,-1.25 h 3 v 8.9006 l 2.8511,1.5994 0.40635,4 0.40634,4 0.16811,-5.75 0.1681,-5.75 h 6 v -1.8776 c 0,-1.0327 0.675,-2.4378 1.5,-3.1224 l 1.5,-1.2449 v 2.3056 l 12.033,-0.36106 1.467,1.5742 -2.5,0.89285 v 19.833 h -33 z m 34,2.941 v -4.5 h 20 v -4 h 18 v 3.75 h 73.314 v 9.25 h -111.31 z"
         fill="#8c8c8c"
         id="path6" /><path
         d="m 105.45,124.37 1.5873,-0.5475 3.5177,-0.42581 c 0.53709,0.1058 2.0497,-2.1417 2.8374,-1.3089 l 1.5515,1.3835 1.7678,-2.2438 0.7513,2.1423 3.0762,-1.4424 h 4.8439 l 4.1888,-1.0237 82.489,-0.0654 c 45.369,-0.036 76.507,0.72473 78.079,1.5543 0.94443,0.49839 -0.70415,0.39139 -1.3473,0.99456 l -0.5625,0.70673 -1.25,0.17792 -3.2254,0.35748 c -29.339,1.1956 -55.464,-0.3089 -85.409,-0.29957 l -88.495,0.0285 z"
         fill="#308fbf"
         stroke-width="0.46453"
         id="path8" /><path
         d="m 125.56,122.89 -0.56001,-0.90612 -3.998,1.0455 v -11.233 h 9.8866 l 2.6517,-3.7858 80.231,-0.35711 c 44.127,-0.19642 80.231,-0.29914 80.231,-0.22827 -2e-5,0.0709 -1.5658,2.7291 -3.4796,5.9073 l -3.4796,5.7784 0.58799,2.3427 0.58799,2.3427 h -1.5494 c -0.85217,0 -1.8218,-0.44078 -2.1548,-0.97952 l -0.60538,-0.97952 -3.8574,2.409 -2.3066,-2.3066 -3.6934,2.3066 -2.3563,-2.3563 -3.6936,1.9768 -3.6936,-1.9768 -2.3563,2.3563 -3.6934,-2.3066 -2.3066,2.3066 -3.6934,-2.3066 -2.3066,2.3066 -3.6934,-2.3066 -2.3066,2.3066 -3.6934,-2.3066 -2.3066,2.3066 -3.6934,-2.3066 -2.3066,2.3066 -3.6934,-2.3066 -2.3066,2.3066 -3.5807,-2.2362 -3.3429,1.8708 -3.7201,-1.9909 -2.0917,2.0917 -3.9083,-2.0917 -2.3563,2.3563 -3.6934,-2.3066 -2.3066,2.3066 -3.6934,-2.3066 -2.3066,2.3066 -3.6934,-2.3066 -2.3066,2.3066 -3.6934,-2.3066 -1.1533,1.1533 -1.1533,1.122 -1.8467,-1.122 -1.8467,-1.1533 -1.1533,1.1533 -1.1533,1.0908 -1.7903,-1.0556 -1.7903,-1.1181 -3.3429,1.8708 -3.7201,-1.9909 -2.0917,2.0917 -3.9083,-2.0917 -2.3563,2.3563 -3.6934,-2.3066 -2.3066,2.3066 -3.6934,-2.3066 -2.3066,2.3066 -3.6934,-2.3066 -2.3066,2.3066 -3.6934,-2.3066 -2.3066,2.3066 -3.629,-2.2664 -1.4105,0.89291 c -1.8052,1.1428 -2.6543,1.1472 -3.3525,0.0174 z m 10.442,-24.594 v -7.5 h 2 v -10 h 0.91667 c 0.50416,0 1.1449,0.5625 1.4239,1.25 l 0.5072,1.25 2.1523,-3 0.98469,1.5 c 0.54158,0.825 0.99158,3.1875 1,5.25 l 0.0153,3.75 h 2.885 l 0.38279,4.25 0.3828,4.25 0.1747,-5.75 0.17471,-5.75 h 5.8609 l 0.6391,-4.4968 7.5,0.3437 c 8.1665,0.37424 9.399,0.79066 6.7417,2.2778 l -1.7417,0.97468 v 18.901 h -32 z m 34,3 v -4.5 h 20 v -2.853 l 17.323,-0.64695 0.45527,1.75 0.45528,1.75 h 72.581 v 9 h -110.81 z"
         fill="#767676"
         id="path10" /><path
         d="m 125.48,122.97 -0.63442,-1.0265 -3.3492,0.55304 -0.60452,-10.5 h 10.97 l 1.2046,-3.7954 80.215,-0.39556 c 44.118,-0.21755 80.319,-0.3476 80.445,-0.28898 0.12649,0.0586 -1.3808,2.6817 -3.3494,5.829 l -3.5794,5.7224 0.61849,2.4643 0.61848,2.4642 h -1.46 c -0.80302,0 -1.7389,-0.45122 -2.0797,-1.0027 l -0.61971,-1.0027 -4.0065,2.1442 -2.8722,-2.3837 -3,2.4898 -3,-2.4898 -3,2.4898 -3,-2.4898 -2.8722,2.3837 -3.8214,-2.0452 -2.0917,2.0917 -3.9083,-2.0917 -2.0917,2.0917 -3.9083,-2.0917 -2.3563,2.3563 -3.6934,-2.3066 -2.3066,2.3066 -3.5807,-2.2362 -3.4741,1.9442 -1.4476,-1.2014 -1.4476,-1.2014 -3,2.4898 -3,-2.4898 -3,2.4898 -3,-2.4898 -3,2.4898 -3,-2.4898 -2.8722,2.3837 -3.8214,-2.0452 -2.0917,2.0917 -3.9083,-2.0917 -2.0917,2.0917 -3.9083,-2.0917 -1.1782,1.1782 -1.1782,0.99066 -1.7903,-0.93058 -1.7903,-1.1181 -3.5622,1.9935 -2.1136,-2.1136 -3.8214,2.0452 -2.8722,-2.3837 -3,2.4898 -3,-2.4898 -3,2.4898 -3,-2.4898 -2.8722,2.3837 -3.8214,-2.0452 -2.0917,2.0917 -3.9083,-2.0917 -2.0917,2.0917 -3.7664,-2.0157 -1.8206,1.0188 -1.8206,1.0188 -2.1136,-2.1136 -3.8214,2.0452 -1.2196,-1.0122 -1.2196,-1.0122 -1.4665,0.92749 c -1.9051,1.2049 -2.7056,1.1892 -3.4828,-0.0684 z m 10.516,-24.473 v -7.5 h 2 v -10 h 0.91667 c 0.50416,0 1.1449,0.5625 1.4239,1.25 l 0.5072,1.25 2.1523,-3 0.98469,1.5 c 0.54158,0.825 0.99158,3.1875 1,5.25 l 0.0153,3.75 h 2.885 l 0.38279,4.25 0.3828,4.25 0.1747,-5.75 0.17471,-5.75 h 6 v -1.9167 c 0,-2.4896 0.62459,-2.6463 8.9778,-2.2513 l 7.0222,0.33206 V 85.079 c 0,0.50487 -0.675,0.91794 -1.5,0.91794 h -1.5 v 20 h -32 z m 34,3 v -4.5 h 20 v -3 h 18 v 3 h 72.814 v 9 H 170 Z"
         fill="#606060"
         id="path12" /></g><g
       transform="translate(-0.74999,-0.75)"
       fill="#a6a6a6"
       id="g42"><rect
         x="159.91"
         y="90.583"
         width="18"
         height="3.8399999"
         stroke-width="1.0084"
         id="rect16" /><rect
         x="159.91"
         y="94.663002"
         width="18"
         height="4.1500001"
         stroke-width="1.0483"
         id="rect18" /><rect
         x="159.91"
         y="99.142998"
         width="18"
         height="3.74"
         stroke-width="0.99521"
         id="rect20" /><rect
         x="141.66"
         y="94.663002"
         width="18"
         height="4.1500001"
         stroke-width="1.0483"
         id="rect22" /><rect
         x="141.66"
         y="99.142998"
         width="18"
         height="3.74"
         stroke-width="0.99521"
         id="rect24" /><rect
         x="196.41"
         y="94.663002"
         width="18"
         height="4.1500001"
         stroke-width="1.0483"
         id="rect26" /><rect
         x="196.41"
         y="99.142998"
         width="18"
         height="3.74"
         stroke-width="0.99521"
         id="rect28" /><rect
         x="214.66"
         y="94.663002"
         width="18"
         height="4.1500001"
         stroke-width="1.0483"
         id="rect30" /><rect
         x="214.66"
         y="99.142998"
         width="18"
         height="3.74"
         stroke-width="0.99521"
         id="rect32" /><rect
         x="233.06"
         y="94.663002"
         width="18"
         height="4.1500001"
         stroke-width="1.0483"
         id="rect34" /><rect
         x="233.06"
         y="99.142998"
         width="18"
         height="3.74"
         stroke-width="0.99521"
         id="rect36" /><rect
         x="178.16"
         y="94.663002"
         width="18"
         height="4.1500001"
         stroke-width="1.0483"
         id="rect38" /><rect
         x="178.16"
         y="99.142998"
         width="18"
         height="3.74"
         stroke-width="0.99521"
         id="rect40" /></g><g
       transform="translate(-1.25,-0.5)"
       stroke-width="1.0084"
       id="g70"><rect
         x="160.16"
         y="90.682999"
         width="18"
         height="3.8399999"
         fill="#4d4d4d"
         id="rect44" /><rect
         x="160.16"
         y="94.763"
         width="18"
         height="3.8399999"
         fill="#262626"
         id="rect46" /><rect
         x="160.16"
         y="98.843002"
         width="18"
         height="3.8399999"
         fill="#404040"
         id="rect48" /><rect
         x="141.91"
         y="94.763"
         width="18"
         height="3.8399999"
         fill="#308fbf"
         id="rect50" /><rect
         x="141.91"
         y="98.843002"
         width="18"
         height="3.8399999"
         fill="#262626"
         id="rect52" /><rect
         x="196.66"
         y="94.763"
         width="18"
         height="3.8399999"
         fill="#308fbf"
         id="rect54" /><rect
         x="196.66"
         y="98.843002"
         width="18"
         height="3.8399999"
         fill="#595959"
         id="rect56" /><rect
         x="214.91"
         y="94.763"
         width="18"
         height="3.8399999"
         fill="#262626"
         id="rect58" /><rect
         x="214.91"
         y="98.843002"
         width="18"
         height="3.8399999"
         fill="#308fbf"
         id="rect60" /><rect
         x="233.16"
         y="94.763"
         width="18"
         height="3.8399999"
         fill="#4d4d4d"
         id="rect62" /><rect
         x="233.16"
         y="98.843002"
         width="18"
         height="3.8399999"
         fill="#262626"
         id="rect64" /><rect
         x="178.41"
         y="94.763"
         width="18"
         height="3.8399999"
         fill="#8c8c8c"
         id="rect66" /><rect
         x="178.41"
         y="98.843002"
         width="18"
         height="3.8399999"
         fill="#308fbf"
         id="rect68" /></g><g
       transform="translate(85.164,76.833)"
       id="g80"><path
         d="M 167.62,25.125 169.8713,2.75 v 23"
         fill="#4d4d4d"
         stroke-width="0.92609"
         id="path72" /><path
         d="M 168.08211,25.375 170,3 v 23"
         fill="#737373"
         stroke-width="0.85477"
         id="path74" /><path
         d="m 169.28,25 0.59467,-22.375 v 23"
         fill="#bfbfbf"
         stroke-width="0.47596"
         id="path76" /><rect
         x="46.492001"
         y="8.7503996"
         width="7.2477999"
         height="2.6517"
         fill="#a6a6a6"
         id="rect78" /></g></g><path
     style="fill:#ff0000;stroke:#0000ff;stroke-width:0.0848383"
     d="m 65.37366,19.563852 v -1.885296 h 8.955159 8.955159 v 1.885296 1.885297 H 74.328819 65.37366 Z"
     id="path1767" /><path
     style="fill:#ff0000;stroke:#0000ff;stroke-width:0.0848383"
     d="m 120.14153,23.61724 v -1.885297 h 8.95516 8.95515 v 1.885297 1.885297 h -8.95515 -8.95516 z"
     id="path1838" /><path
     style="fill:#ff0000;stroke:#0000ff;stroke-width:0.0848383"
     d="m 156.62202,19.563852 v -1.885296 h 8.95515 8.95516 v 1.885296 1.885297 h -8.95516 -8.95515 z"
     id="path1842" /><path
     style="fill:#f2f2f2;stroke:#0000ff;stroke-width:0.0848383"
     d="m 156.71628,19.563852 v -1.791031 h 8.86089 8.8609 v 1.791031 1.791032 h -8.8609 -8.86089 z"
     id="path1844" /><path
     style="fill:#f2f2f2;stroke:#0000ff;stroke-width:0.0848383"
     d="m 65.37366,23.61724 v -1.885297 h 8.955159 8.955159 v 1.885297 1.885297 H 74.328819 65.37366 Z"
     id="path1915" /><path
     style="fill:#f2f2f2;stroke:#0000ff;stroke-width:0.0848383"
     d="m 101.94841,19.563852 v -1.885296 h 8.95516 8.95516 v 1.885296 1.885297 h -8.95516 -8.95516 z"
     id="path1917" /><path
     style="fill:#0000ff;stroke:#0000ff;stroke-width:0.0848383"
     d="m 138.4289,23.61724 v -1.885297 h 8.95516 8.95516 v 1.885297 1.885297 h -8.95516 -8.95516 z"
     id="path1919" /><path
     style="fill:#0000ff;stroke:#0000ff;stroke-width:0.0848383"
     d="m 83.661037,19.563852 v -1.885296 h 8.955159 8.955154 v 1.885296 1.885297 h -8.955154 -8.955159 z"
     id="path1990" /><path
     style="fill:#0000ff;stroke:#0000ff;stroke-width:0.0848383"
     d="m 83.661037,23.61724 v -1.885297 h 8.955159 8.955154 v 1.885297 1.885297 h -8.955154 -8.955159 z"
     id="path1992" /><path
     style="fill:#ff0000;stroke:#0000ff;stroke-width:0.0848383"
     d="m 156.62202,23.61724 v -1.885297 h 8.95515 8.95516 v 1.885297 1.885297 h -8.95516 -8.95515 z"
     id="path1994" /><path
     style="fill:#ff0000;stroke:#0000ff;stroke-width:0.11998"
     d="m 138.44406,19.533903 v -1.866348 h 8.93181 8.93181 v 1.866348 1.866349 h -8.93181 -8.93181 z"
     id="path1996" /><path
     style="fill:#0000ff;stroke:#0000ff;stroke-width:0.11998"
     d="m 83.653384,15.501257 1.9e-5,-1.83302 h 8.93181 8.931807 v 1.797836 1.797836 l -8.931826,0.03518 -8.931829,0.03518 z"
     id="path1998" /><path
     style="fill:#ff0000;stroke:#0000ff;stroke-width:0.11998"
     d="m 83.653403,15.46793 v -1.799693 h 8.93181 8.931807 v 1.799693 1.799693 h -8.931807 -8.93181 z"
     id="path2006" /><path
     style="fill:#0000ff;stroke:#0000ff;stroke-width:0.11998"
     d="m 83.786713,23.599877 v -1.799694 h 8.865155 8.865152 v 1.799694 1.799693 h -8.865152 -8.865155 z"
     id="path2077" /><path
     style="fill:#0000ff;stroke:#0000ff;stroke-width:0.11998"
     d="m 83.786713,15.46793 v -1.666383 h 8.7985 8.798497 v 1.666383 1.666382 h -8.798497 -8.7985 z"
     id="path2876" /><path
     style="fill:#e6e6e6;stroke:#0000ff;stroke-width:0.11998"
     d="m 83.786713,19.600558 v -1.799693 h 8.865155 8.865152 v 1.799693 1.799694 h -8.865152 -8.865155 z"
     id="path2878" /><path
     style="fill:#e6e6e6;stroke:#0000ff;stroke-width:0.11998"
     d="m 101.91696,23.666532 v -1.866349 h 8.93181 8.93181 v 1.866349 1.866348 h -8.93181 -8.93181 z"
     id="path2880" /><path
     style="fill:#ff0000;stroke:#0000ff;stroke-width:0.11998"
     d="m 120.18051,19.533903 v -1.866348 h 8.93181 8.93181 v 1.866348 1.866349 h -8.93181 -8.93181 z"
     id="path2882" /><path
     style="fill:#e6e6e6;stroke:#0000ff;stroke-width:0.11998"
     d="m 120.31382,19.533903 v -1.733038 h 8.7985 8.7985 v 1.733038 1.733038 h -8.7985 -8.7985 z"
     id="path2884" /><path
     style="fill:#ff0000;stroke:#0000ff;stroke-width:0.11998"
     d="m 102.05027,19.600558 v -1.799693 h 8.86515 8.86516 v 1.799693 1.799694 h -8.86516 -8.86515 z"
     id="path2886" /><text
     xml:space="preserve"
     id="text2940"
     style="font-size:16px;font-family:'MS PGothic';-inkscape-font-specification:'MS PGothic';white-space:pre;shape-inside:url(#rect2942);fill:#ff0000;stroke:#0000ff;stroke-width:0.3;stroke-dasharray:none"
     transform="translate(13.19875,14.668066)"><tspan
       x="48.925781"
       y="25.214844"
       id="tspan320"><tspan
         style="font-weight:300;font-family:Bahnschrift;-inkscape-font-specification:'Bahnschrift Light';fill:#ffffff;stroke:#ffffff"
         id="tspan312">logship </tspan><tspan
         style="font-weight:300;font-family:Bahnschrift;-inkscape-font-specification:'Bahnschrift Light'"
         id="tspan314">u</tspan><tspan
         style="font-weight:300;font-family:Bahnschrift;-inkscape-font-specification:'Bahnschrift Light';fill:#ffffff;stroke:#ffffff"
         id="tspan316">s</tspan><tspan
         style="font-weight:300;font-family:Bahnschrift;-inkscape-font-specification:'Bahnschrift Light';fill:#0000ff"
         id="tspan318">a</tspan></tspan></text><g
     style="fill:none"
     id="g410"
     transform="matrix(-0.52379627,0,0,0.52379627,60.021405,29.083266)"><g
       clip-path="url(#clip0_503_3486)"
       id="g360"><rect
         width="28"
         height="20"
         rx="2"
         fill="#ffffff"
         id="rect345"
         x="0"
         y="0" /><mask
         id="mask0_503_3486"
         maskUnits="userSpaceOnUse"
         x="0"
         y="0"
         width="28"
         height="20"><rect
           width="28"
           height="20"
           rx="2"
           fill="#ffffff"
           id="rect347"
           x="0"
           y="0" /></mask><g
         mask="url(#mask0_503_3486)"
         id="g358"><path
           fill-rule="evenodd"
           clip-rule="evenodd"
           d="M 28,0 H 0 v 1.33333 h 28 z m 0,2.66667 H 0 V 4 H 28 Z M 0,5.33333 H 28 V 6.66667 H 0 Z M 28,8 H 0 V 9.33333 H 28 Z M 0,10.6667 H 28 V 12 H 0 Z m 28,2.6666 H 0 v 1.3334 H 28 Z M 0,16 h 28 v 1.3333 H 0 Z m 28,2.6667 H 0 V 20 h 28 z"
           fill="#d02f44"
           id="path350" /><rect
           width="12"
           height="9.3333302"
           fill="#46467f"
           id="rect352"
           x="0"
           y="0" /><g
           filter="url(#filter0_d_503_3486)"
           id="g356"><path
             fill-rule="evenodd"
             clip-rule="evenodd"
             d="m 2.66665,1.99999 c 0,0.36819 -0.29848,0.66667 -0.66667,0.66667 -0.36819,0 -0.66667,-0.29848 -0.66667,-0.66667 0,-0.36818 0.29848,-0.66666 0.66667,-0.66666 0.36819,0 0.66667,0.29848 0.66667,0.66666 z m 2.66666,0 c 0,0.36819 -0.29847,0.66667 -0.66666,0.66667 -0.36819,0 -0.66667,-0.29848 -0.66667,-0.66667 0,-0.36818 0.29848,-0.66666 0.66667,-0.66666 0.36819,0 0.66666,0.29848 0.66666,0.66666 z m 2,0.66667 c 0.36819,0 0.66667,-0.29848 0.66667,-0.66667 0,-0.36818 -0.29848,-0.66666 -0.66667,-0.66666 -0.36819,0 -0.66666,0.29848 -0.66666,0.66666 0,0.36819 0.29847,0.66667 0.66666,0.66667 z M 10.6666,1.99999 c 0,0.36819 -0.2984,0.66667 -0.66662,0.66667 -0.36819,0 -0.66667,-0.29848 -0.66667,-0.66667 0,-0.36818 0.29848,-0.66666 0.66667,-0.66666 0.36822,0 0.66662,0.29848 0.66662,0.66666 z m -7.33329,2 c 0.36819,0 0.66667,-0.29847 0.66667,-0.66666 0,-0.36819 -0.29848,-0.66667 -0.66667,-0.66667 -0.36819,0 -0.66666,0.29848 -0.66666,0.66667 0,0.36819 0.29847,0.66666 0.66666,0.66666 z M 6.66665,3.33333 c 0,0.36819 -0.29848,0.66666 -0.66667,0.66666 -0.36819,0 -0.66667,-0.29847 -0.66667,-0.66666 0,-0.36819 0.29848,-0.66667 0.66667,-0.66667 0.36819,0 0.66667,0.29848 0.66667,0.66667 z m 2,0.66666 c 0.36819,0 0.66666,-0.29847 0.66666,-0.66666 0,-0.36819 -0.29847,-0.66667 -0.66666,-0.66667 -0.36819,0 -0.66667,0.29848 -0.66667,0.66667 0,0.36819 0.29848,0.66666 0.66667,0.66666 z m 1.99995,0.66667 c 0,0.36819 -0.2984,0.66667 -0.66662,0.66667 -0.36819,0 -0.66667,-0.29848 -0.66667,-0.66667 0,-0.36819 0.29848,-0.66667 0.66667,-0.66667 0.36822,0 0.66662,0.29848 0.66662,0.66667 z M 7.33331,5.33333 c 0.36819,0 0.66667,-0.29848 0.66667,-0.66667 0,-0.36819 -0.29848,-0.66667 -0.66667,-0.66667 -0.36819,0 -0.66666,0.29848 -0.66666,0.66667 0,0.36819 0.29847,0.66667 0.66666,0.66667 z m -2,-0.66667 c 0,0.36819 -0.29847,0.66667 -0.66666,0.66667 -0.36819,0 -0.66667,-0.29848 -0.66667,-0.66667 0,-0.36819 0.29848,-0.66667 0.66667,-0.66667 0.36819,0 0.66666,0.29848 0.66666,0.66667 z M 1.99998,5.33333 c 0.36819,0 0.66667,-0.29848 0.66667,-0.66667 0,-0.36819 -0.29848,-0.66667 -0.66667,-0.66667 -0.36819,0 -0.66667,0.29848 -0.66667,0.66667 0,0.36819 0.29848,0.66667 0.66667,0.66667 z m 2,0.66666 c 0,0.3682 -0.29848,0.66667 -0.66667,0.66667 -0.36819,0 -0.66666,-0.29847 -0.66666,-0.66667 0,-0.36819 0.29847,-0.66666 0.66666,-0.66666 0.36819,0 0.66667,0.29847 0.66667,0.66666 z m 2,0.66667 c 0.36819,0 0.66667,-0.29847 0.66667,-0.66667 0,-0.36819 -0.29848,-0.66666 -0.66667,-0.66666 -0.36819,0 -0.66667,0.29847 -0.66667,0.66666 0,0.3682 0.29848,0.66667 0.66667,0.66667 z M 9.33331,5.99999 c 0,0.3682 -0.29847,0.66667 -0.66666,0.66667 -0.36819,0 -0.66667,-0.29847 -0.66667,-0.66667 0,-0.36819 0.29848,-0.66666 0.66667,-0.66666 0.36819,0 0.66666,0.29847 0.66666,0.66666 z M 9.99998,8 c 0.36822,0 0.66662,-0.29848 0.66662,-0.66667 0,-0.36819 -0.2984,-0.66667 -0.66662,-0.66667 -0.36819,0 -0.66667,0.29848 -0.66667,0.66667 C 9.33331,7.70152 9.63179,8 9.99998,8 Z m -2,-0.66667 C 7.99998,7.70152 7.7015,8 7.33331,8 6.96512,8 6.66665,7.70152 6.66665,7.33333 c 0,-0.36819 0.29847,-0.66667 0.66666,-0.66667 0.36819,0 0.66667,0.29848 0.66667,0.66667 z M 4.66665,8 C 5.03484,8 5.33331,7.70152 5.33331,7.33333 5.33331,6.96514 5.03484,6.66666 4.66665,6.66666 4.29846,6.66666 3.99998,6.96514 3.99998,7.33333 3.99998,7.70152 4.29846,8 4.66665,8 Z m -2,-0.66667 C 2.66665,7.70152 2.36817,8 1.99998,8 1.63179,8 1.33331,7.70152 1.33331,7.33333 c 0,-0.36819 0.29848,-0.66667 0.66667,-0.66667 0.36819,0 0.66667,0.29848 0.66667,0.66667 z"
             fill="url(#paint0_linear_503_3486)"
             id="path354"
             style="fill:url(#paint0_linear_503_3486)" /></g></g></g></g></svg>
