<?xml version="1.0" encoding="UTF-8" standalone="no"?>
<svg
   width="189.553"
   height="44.795"
   version="1.1"
   viewBox="0 0 189.553 44.795"
   xmlSpace="preserve"
   id="svg156"
   xmlns="http://www.w3.org/2000/svg"
   xmlnsSvg="http://www.w3.org/2000/svg">
  <defs
     id="defs160" />
  <g
     transform="translate(-75.3 -76.63)"
     id="g82">
    <g
       transform="translate(-30.15 -3.667)"
       id="g14">
      <path
         fill="#bfbfbf"
         d="M116.41 122.17l1.093-1.206.95.917c.522.504 1.31.916 1.75.916h.8v-11h9.425l4.075-4.877 80.25-.311c44.138-.172 80.25-.208 80.25-.082 0 .127-1.575 2.693-3.5 5.702l-3.5 5.472v4.214l2-1.236v1.059c0 1.463 6.486 1.353-88.593 1.502l-86.093.136zm19.869-27.123c.317-5.912.882-11.537 1.257-12.5.789-2.027 3.068-2.326 3.805-.5l.504 1.25.08-1.25.078-1.25h1.393c1.683 0 2.607 2.155 2.607 6.082v2.918h1.89l.75 9.5.36-11.5h5.104l1.046-3c1.075-3.083 2.253-3.775 3.365-1.976l.632 1.023 11.768-.465 1.582 1.582-3.497 2.557v18.28h-33.3zm33.724 6.25v-4.5l20.5-.367-16-1.266 15.333-.367.76-2.28 15.407-.136.116-3.042.116-3.042.423 2c.232 1.1.639 3.012.903 4.25l.48 2.25h4.852l.75-9.5.36 9.5h31.89l.749-9.5.36 9.5 2.5.03-3 1.94 12.25.015 22.564.015v9h-111.31zm42.269-5.156c-.677-.274-2.027-.29-3-.037l-1.769.461 6 .074zm25.981-.088c-4.537-.185-11.962-.185-16.5 0l-8.25.337h33z"
         id="path2" />
      <path
         fill="#a3a3a3"
         d="M116.73 122.68c.678-.683 1.485-.99 1.793-.683.308.308-.247.867-1.233 1.243l-1.793.683zm4.267-5.084v-5.792h9.756l2.865-4.315 160.38-.963-.004.889c-.003.489-1.35 2.914-2.996 5.39l-2.991 4.5-.004 2.308-.004 2.31 2.5-1.503-2.506 3.095-45.495-.23-2.361-1.514-1.037 1.678-39.602-.145-2.362-1.532-1.1 1.78-4.269-.135c-2.348-.073-4.8-.474-5.45-.89l-1.18-.756-1.086 1.756-33.887-.223-.74-.741-.742-.742-2.846 2.363-1.79-1.118-1.791-1.119-2.307 2.307-3.857-2.41-1.082 1.751-14.011-.208zm15-19.233v-7.441l2.162-1.336-.622-2.476c-.341-1.362-.348-3.338-.013-4.391l.607-1.915h1.35c.742 0 1.576.562 1.853 1.25l.505 1.25.079-1.25.079-1.25h3v8.9l2.85 1.6.407 4 .407 4 .168-5.75.168-5.75h5.75l1.2-6h1.025a1.03 1.03 0 011.025 1.03v1.03l12.033-.36 1.467 1.574-2.5.892v19.834h-33zm34 2.94v-4.5h20v-4l3.25-.142c3.317-.145 5.745-.136 11.5.042l3.25.1v4h73.314v9H170z"
         id="path4" />
      <path
         fill="#8c8c8c"
         d="M121.68 123.15c-.376-.376-.683-3.083-.683-6.017V111.8h9.756l1.427-2.15 1.427-2.148 80.195-.493c44.107-.27 80.195-.236 80.195.078 0 .313-1.615 3.28-3.589 6.594l-3.588 6.024 1.315 2.128 1.18-.658c.65-.361.387.185-.585 1.215l-1.766 1.87-3.71-2.317-2.307 2.307-3.858-2.41-.517.837-.517.837h-16.117l-.517-.837-.517-.836-3.857 2.409-2.307-2.307-3.693 2.307-2.307-2.307-3.693 2.307-2.307-2.307-3.693 2.307-2.307-2.307-1.79 1.118-1.791 1.119-2.846-2.363-.74.74c-.406.406-4.304.806-8.661.889l-7.923.15-.543-.877-.542-.878-3.858 2.409-2.306-2.307-3.694 2.307-2.306-2.307-3.694 2.307-2.306-2.307-1.79 1.119-1.791 1.118-2.81-2.332-2.403 2.402-3.693-2.307-2.307 2.307-3.857-2.41-1.11 1.798-4.917-.177c-2.704-.098-5.223-.485-5.599-.86l-.682-.683-3.735 2.332-2.306-2.307-3.694 2.307-2.306-2.307-3.694 2.307-2.306-2.307-1.79 1.118-1.791 1.119-2.81-2.332-2.403 2.402-3.693-2.307-2.307 2.307-3.693-2.307-1.89 1.89zm14.317-24.791v-7.441l2.162-1.336-.621-2.476c-.342-1.362-.348-3.338-.014-4.391l.608-1.915h1.349c.742 0 1.576.563 1.854 1.25l.504 1.25.079-1.25.079-1.25h3v8.9l2.851 1.6.406 4 .407 4 .168-5.75.168-5.75h6v-1.878c0-1.032.675-2.437 1.5-3.122l1.5-1.245v2.306l12.033-.361 1.467 1.574-2.5.893V105.8h-33zm34 2.941v-4.5h20v-4h18v3.75h73.314v9.25h-111.31z"
         id="path6" />
      <path
         fill="#308fbf"
         strokeWidth="0.465"
         d="M105.45 124.37l1.587-.547 3.518-.426c.537.105 2.05-2.142 2.837-1.31l1.552 1.384 1.768-2.244.751 2.143 3.076-1.443h4.844l4.189-1.023 82.489-.066c45.369-.036 76.507.725 78.079 1.555.944.498-.704.391-1.347.994l-.563.707-1.25.178-3.225.357c-29.34 1.196-55.464-.309-85.41-.3l-88.494.03z"
         id="path8" />
      <path
         fill="#767676"
         d="M125.56 122.89l-.56-.906-3.998 1.045v-11.233h9.887l2.651-3.785 80.231-.358c44.127-.196 80.231-.299 80.231-.228 0 .071-1.566 2.73-3.48 5.908l-3.479 5.778.588 2.343.588 2.342h-1.55c-.851 0-1.821-.44-2.154-.98l-.606-.979-3.857 2.41-2.307-2.307-3.693 2.306-2.356-2.356-3.694 1.977-3.693-1.977-2.357 2.356-3.693-2.306-2.307 2.306-3.693-2.306-2.307 2.306-3.693-2.306-2.307 2.306-3.693-2.306-2.307 2.306-3.693-2.306-2.307 2.306-3.693-2.306-2.307 2.306-3.58-2.236-3.343 1.87-3.72-1.99-2.092 2.092-3.908-2.092-2.357 2.356-3.693-2.306-2.307 2.306-3.693-2.306-2.307 2.306-3.693-2.306-2.307 2.306-3.693-2.306-1.153 1.153-1.154 1.122-1.846-1.122-1.847-1.153-1.153 1.153-1.154 1.09-1.79-1.055-1.79-1.118-3.343 1.87-3.72-1.99-2.092 2.092-3.908-2.092-2.357 2.356-3.693-2.306-2.307 2.306-3.693-2.306-2.307 2.306-3.693-2.306-2.307 2.306-3.693-2.306-2.307 2.306-3.629-2.266-1.41.893c-1.805 1.143-2.654 1.147-3.353.017zm10.442-24.594v-7.5h2v-10h.917c.504 0 1.145.562 1.424 1.25l.507 1.25 2.152-3 .985 1.5c.541.825.991 3.187 1 5.25l.015 3.75h2.885l.383 4.25.383 4.25.174-5.75.175-5.75h5.861l.64-4.497 7.5.344c8.166.374 9.398.79 6.74 2.278l-1.74.974v18.901h-32zm34 3v-4.5h20v-2.853l17.323-.647.455 1.75.456 1.75h72.58v9h-110.81z"
         id="path10" />
      <path
         fill="#606060"
         d="M125.48 122.97l-.634-1.026-3.35.553-.604-10.5h10.97l1.204-3.796 80.215-.395c44.118-.218 80.32-.348 80.445-.29.127.06-1.38 2.682-3.349 5.83l-3.58 5.722.62 2.464.618 2.464h-1.46c-.803 0-1.74-.45-2.08-1.002l-.62-1.003-4.006 2.144-2.872-2.383-3 2.49-3-2.49-3 2.49-3-2.49-2.873 2.383-3.821-2.045-2.092 2.092-3.908-2.092-2.092 2.092-3.908-2.092-2.356 2.356-3.694-2.306-2.306 2.306-3.581-2.236-3.474 1.944-1.448-1.201-1.447-1.201-3 2.49-3-2.49-3 2.49-3-2.49-3 2.49-3-2.49-2.873 2.383-3.821-2.045-2.092 2.092-3.908-2.092-2.092 2.092-3.908-2.092-1.178 1.178-1.178.991-1.79-.93-1.791-1.119-3.562 1.994-2.114-2.114-3.821 2.045-2.872-2.383-3 2.49-3-2.49-3 2.49-3-2.49-2.873 2.383-3.821-2.045-2.092 2.092-3.908-2.092-2.092 2.092-3.766-2.016-1.82 1.019-1.821 1.019-2.114-2.114-3.821 2.045-1.22-1.012-1.22-1.012-1.466.927c-1.905 1.205-2.706 1.19-3.483-.068zm10.516-24.473v-7.5h2v-10h.917c.504 0 1.145.563 1.424 1.25l.507 1.25 2.152-3 .985 1.5c.541.825.991 3.188 1 5.25l.015 3.75h2.885l.383 4.25.383 4.25.174-5.75.175-5.75h6V86.08c0-2.49.625-2.646 8.978-2.251l7.022.332v.918c0 .505-.675.918-1.5.918h-1.5v20h-32zm34 3v-4.5h20v-3h18v3h72.814v9H170z"
         id="path12" />
    </g>
    <g
       fill="#a6a6a6"
       transform="translate(-.75 -.75)"
       id="g42">
      <path
         strokeWidth="1.008"
         d="M159.91 90.583H177.91V94.423H159.91z"
         id="path16" />
      <path
         strokeWidth="1.048"
         d="M159.91 94.663H177.91V98.813H159.91z"
         id="path18" />
      <path
         strokeWidth="0.995"
         d="M159.91 99.143H177.91V102.883H159.91z"
         id="path20" />
      <path
         strokeWidth="1.048"
         d="M141.66 94.663H159.66V98.813H141.66z"
         id="path22" />
      <path
         strokeWidth="0.995"
         d="M141.66 99.143H159.66V102.883H141.66z"
         id="path24" />
      <path
         strokeWidth="1.048"
         d="M196.41 94.663H214.41V98.813H196.41z"
         id="path26" />
      <path
         strokeWidth="0.995"
         d="M196.41 99.143H214.41V102.883H196.41z"
         id="path28" />
      <path
         strokeWidth="1.048"
         d="M214.66 94.663H232.66V98.813H214.66z"
         id="path30" />
      <path
         strokeWidth="0.995"
         d="M214.66 99.143H232.66V102.883H214.66z"
         id="path32" />
      <path
         strokeWidth="1.048"
         d="M233.06 94.663H251.06V98.813H233.06z"
         id="path34" />
      <path
         strokeWidth="0.995"
         d="M233.06 99.143H251.06V102.883H233.06z"
         id="path36" />
      <path
         strokeWidth="1.048"
         d="M178.16 94.663H196.16V98.813H178.16z"
         id="path38" />
      <path
         strokeWidth="0.995"
         d="M178.16 99.143H196.16V102.883H178.16z"
         id="path40" />
    </g>
    <g
       strokeWidth="1.008"
       transform="translate(-1.25 -.5)"
       id="g70">
      <path
         fill="#4d4d4d"
         d="M160.16 90.683H178.16V94.52300000000001H160.16z"
         id="path44" />
      <path
         fill="#262626"
         d="M160.16 94.763H178.16V98.60300000000001H160.16z"
         id="path46" />
      <path
         fill="#404040"
         d="M160.16 98.843H178.16V102.683H160.16z"
         id="path48" />
      <path
         fill="#308fbf"
         d="M141.91 94.763H159.91V98.60300000000001H141.91z"
         id="path50" />
      <path
         fill="#262626"
         d="M141.91 98.843H159.91V102.683H141.91z"
         id="path52" />
      <path
         fill="#308fbf"
         d="M196.66 94.763H214.66V98.60300000000001H196.66z"
         id="path54" />
      <path
         fill="#595959"
         d="M196.66 98.843H214.66V102.683H196.66z"
         id="path56" />
      <path
         fill="#262626"
         d="M214.91 94.763H232.91V98.60300000000001H214.91z"
         id="path58" />
      <path
         fill="#308fbf"
         d="M214.91 98.843H232.91V102.683H214.91z"
         id="path60" />
      <path
         fill="#4d4d4d"
         d="M233.16 94.763H251.16V98.60300000000001H233.16z"
         id="path62" />
      <path
         fill="#262626"
         d="M233.16 98.843H251.16V102.683H233.16z"
         id="path64" />
      <path
         fill="#8c8c8c"
         d="M178.41 94.763H196.41V98.60300000000001H178.41z"
         id="path66" />
      <path
         fill="#308fbf"
         d="M178.41 98.843H196.41V102.683H178.41z"
         id="path68" />
    </g>
    <g
       transform="translate(85.164 76.833)"
       id="g80">
      <path
         fill="#4d4d4d"
         strokeWidth="0.926"
         d="M167.62 25.125l2.251-22.375v23"
         id="path72" />
      <path
         fill="#737373"
         strokeWidth="0.855"
         d="M168.082 25.375L170 3v23"
         id="path74" />
      <path
         fill="#bfbfbf"
         strokeWidth="0.476"
         d="M169.28 25l.595-22.375v23"
         id="path76" />
      <path
         fill="#a6a6a6"
         d="M46.492 8.75H53.739999999999995V11.402000000000001H46.492z"
         id="path78" />
    </g>
  </g>
  <path
     fill="green"
     stroke="#00f"
     strokeWidth="0.085"
     d="M65.374 19.564v-1.885h17.91v3.77h-17.91z"
     id="path84"
     style="stroke-width:0;stroke-dasharray:none" />
  <path
     fill="red"
     stroke="#00f"
     strokeWidth="0.085"
     d="M120.142 23.617v-1.885h17.91v3.771h-17.91z"
     id="path86"
     style="stroke-width:0;stroke-dasharray:none" />
  <path
     fill="red"
     stroke="#00f"
     strokeWidth="0.085"
     d="M156.622 19.564v-1.885h17.91v3.77h-17.91z"
     id="path88" />
  <path
     fill="red"
     stroke="#00f"
     strokeWidth="0.085"
     d="M156.716 19.564v-1.791h17.722v3.582h-17.722z"
     id="path90"
     style="stroke-width:0;stroke-dasharray:none" />
  <path
     fill="#f2f2f2"
     stroke="#00f"
     strokeWidth="0.085"
     d="M65.374 23.617v-1.885h17.91v3.771h-17.91z"
     id="path92"
     style="stroke-width:0;stroke-dasharray:none" />
  <path
     fill="#f2f2f2"
     stroke="#00f"
     strokeWidth="0.085"
     d="M101.948 19.564v-1.885h17.911v3.77h-17.911z"
     id="path94" />
  <path
     fill="green"
     stroke="#00f"
     strokeWidth="0.085"
     d="M138.429 23.617v-1.885h17.91v3.771h-17.91z"
     id="path96"
     style="stroke-width:0;stroke-dasharray:none" />
  <path
     fill="#00f"
     stroke="#00f"
     strokeWidth="0.085"
     d="M83.661 19.564v-1.885h17.91v3.77h-17.91z"
     id="path98" />
  <path
     fill="#00f"
     stroke="#00f"
     strokeWidth="0.085"
     d="M83.661 23.617v-1.885h17.91v3.771h-17.91z"
     id="path100" />
  <path
     fill="red"
     stroke="#00f"
     strokeWidth="0.085"
     d="M156.622 23.617v-1.885h17.91v3.771h-17.91z"
     id="path102"
     style="stroke-width:0;stroke-dasharray:none" />
  <path
     fill="green"
     stroke="#00f"
     strokeWidth="0.12"
     d="M138.444 19.534v-1.866h17.864V21.4h-17.864z"
     id="path104"
     style="stroke-width:0;stroke-dasharray:none" />
  <path
     fill="#00f"
     stroke="#00f"
     strokeWidth="0.12"
     d="M83.653 15.501v-1.833h17.864v3.596l-8.932.035-8.932.035z"
     id="path106" />
  <path
     fill="red"
     stroke="#00f"
     strokeWidth="0.12"
     d="M83.653 15.468v-1.8h17.864v3.6H83.653z"
     id="path108" />
  <path
     fill="green"
     stroke="#00f"
     strokeWidth="0.12"
     d="M83.787 23.6v-1.8h17.73v3.6h-17.73z"
     id="path110"
     style="stroke-width:0;stroke-dasharray:none" />
  <path
     fill="red"
     stroke="#00f"
     strokeWidth="0.12"
     d="M83.787 15.468v-1.666h17.597v3.332H83.787z"
     id="path112"
     style="stroke-width:0;stroke-dasharray:none" />
  <path
     fill="#e6e6e6"
     stroke="#00f"
     strokeWidth="0.12"
     d="M83.787 19.6v-1.8h17.73v3.6h-17.73z"
     id="path114"
     style="stroke-width:0;stroke-dasharray:none" />
  <path
     fill="green"
     stroke="#00f"
     strokeWidth="0.12"
     d="M101.917 23.667V21.8h17.864v3.733h-17.864z"
     id="path116"
     style="stroke-width:0;stroke-dasharray:none" />
  <path
     fill="red"
     stroke="#00f"
     strokeWidth="0.12"
     d="M120.18 19.534v-1.866h17.864V21.4h-17.863z"
     id="path118" />
  <path
     fill="#e6e6e6"
     stroke="#00f"
     strokeWidth="0.12"
     d="M120.314 19.534V17.8h17.597v3.466h-17.597z"
     id="path120"
     style="stroke-width:0;stroke-dasharray:none" />
  <path
     fill="red"
     stroke="#00f"
     strokeWidth="0.12"
     d="M102.05 19.6v-1.8h17.731v3.6H102.05z"
     id="path122"
     style="stroke-width:0;stroke-dasharray:none" />
  <g
     transform="matrix(.02968 0 0 .02968 162.149 1.777)"
     id="g138">
    <path
       fill="#b8b09b"
       d="M253.424 496.554c0 8.524-6.911 15.446-15.452 15.446h-86.287c-8.541 0-15.452-6.922-15.452-15.446v-98.102c0-8.535 6.911-15.451 15.452-15.451h86.287c8.541 0 15.452 6.916 15.452 15.451z"
       id="path124" />
    <g
       id="g128">
      <path
         fill="#f6f39e"
         d="M194.089 2.591c1.526-3.455 4.021-3.455 5.547 0l5.889 13.357c1.526 3.461 5.843 5.956 9.597 5.547l14.518-1.579c3.754-.406 5.002 1.753 2.774 4.799l-8.623 11.788c-2.239 3.043-2.239 8.033 0 11.085l8.623 11.782c2.228 3.046.98 5.21-2.774 4.796l-14.518-1.575c-3.754-.409-8.071 2.083-9.597 5.541l-5.889 13.363c-1.526 3.456-4.021 3.456-5.547 0L188.2 68.132c-1.526-3.458-5.843-5.951-9.603-5.541l-14.518 1.575c-3.749.415-5.002-1.749-2.768-4.796l8.622-11.782c2.234-3.052 2.234-8.042 0-11.085l-8.622-11.788c-2.234-3.046-.981-5.205 2.768-4.799l14.518 1.579c3.76.409 8.076-2.086 9.603-5.547z"
         id="path126" />
    </g>
    <path
       fill="#aca78f"
       d="M253.424 496.554v-62.927l-50.626-50.626h-15.695l-49.971 49.964L216.173 512h21.799c8.541 0 15.452-6.922 15.452-15.446z"
       id="path130" />
    <path
       fill="#79c49a"
       d="M347.864 362.971a15.466 15.466 0 012.13-22.955l13.288-9.821a15.447 15.447 0 001.625-23.467l-56.823-55.584a15.494 15.494 0 01-4.572-12.577 15.456 15.456 0 016.957-11.419l3.401-2.214a15.455 15.455 0 006.98-11.694 15.46 15.46 0 00-4.996-12.681L207.5 101.796c-5.895-5.376-14.912-5.376-20.807 0L78.336 200.558a15.458 15.458 0 00-4.99 12.681 15.438 15.438 0 006.974 11.694l3.403 2.214a15.461 15.461 0 016.954 11.419 15.46 15.46 0 01-4.575 12.577l-56.82 55.584a15.447 15.447 0 00-4.607 12.104 15.442 15.442 0 006.232 11.363l13.282 9.821a15.458 15.458 0 012.135 22.955L4.14 408.317a15.45 15.45 0 00-3.409 15.226 15.459 15.459 0 0011.608 10.427h369.515a15.442 15.442 0 0011.599-10.427 15.46 15.46 0 00-3.406-15.226z"
       id="path132" />
    <g
       id="g136">
      <path
         fill="#6abb8c"
         d="M390.048 408.317l-42.184-45.346a15.466 15.466 0 012.13-22.955l13.288-9.821a15.447 15.447 0 001.625-23.467l-56.823-55.584a15.494 15.494 0 01-4.572-12.577 15.456 15.456 0 016.957-11.419l3.401-2.214a15.455 15.455 0 006.98-11.694 15.46 15.46 0 00-4.996-12.681l-5.181-4.718L72.551 433.969h309.303a15.442 15.442 0 0011.599-10.427 15.458 15.458 0 00-3.405-15.225z"
         id="path134" />
    </g>
  </g>
  <g
     transform="matrix(.02968 0 0 .02968 69.022 1.83)"
     id="g154">
    <path
       fill="#b8b09b"
       d="M253.424 496.554c0 8.524-6.911 15.446-15.452 15.446h-86.287c-8.541 0-15.452-6.922-15.452-15.446v-98.102c0-8.535 6.911-15.451 15.452-15.451h86.287c8.541 0 15.452 6.916 15.452 15.451z"
       id="path140" />
    <g
       id="g144">
      <path
         fill="#f6f39e"
         d="M194.089 2.591c1.526-3.455 4.021-3.455 5.547 0l5.889 13.357c1.526 3.461 5.843 5.956 9.597 5.547l14.518-1.579c3.754-.406 5.002 1.753 2.774 4.799l-8.623 11.788c-2.239 3.043-2.239 8.033 0 11.085l8.623 11.782c2.228 3.046.98 5.21-2.774 4.796l-14.518-1.575c-3.754-.409-8.071 2.083-9.597 5.541l-5.889 13.363c-1.526 3.456-4.021 3.456-5.547 0L188.2 68.132c-1.526-3.458-5.843-5.951-9.603-5.541l-14.518 1.575c-3.749.415-5.002-1.749-2.768-4.796l8.622-11.782c2.234-3.052 2.234-8.042 0-11.085l-8.622-11.788c-2.234-3.046-.981-5.205 2.768-4.799l14.518 1.579c3.76.409 8.076-2.086 9.603-5.547z"
         id="path142" />
    </g>
    <path
       fill="#aca78f"
       d="M253.424 496.554v-62.927l-50.626-50.626h-15.695l-49.971 49.964L216.173 512h21.799c8.541 0 15.452-6.922 15.452-15.446z"
       id="path146" />
    <path
       fill="#79c49a"
       d="M347.864 362.971a15.466 15.466 0 012.13-22.955l13.288-9.821a15.447 15.447 0 001.625-23.467l-56.823-55.584a15.494 15.494 0 01-4.572-12.577 15.456 15.456 0 016.957-11.419l3.401-2.214a15.455 15.455 0 006.98-11.694 15.46 15.46 0 00-4.996-12.681L207.5 101.796c-5.895-5.376-14.912-5.376-20.807 0L78.336 200.558a15.458 15.458 0 00-4.99 12.681 15.438 15.438 0 006.974 11.694l3.403 2.214a15.461 15.461 0 016.954 11.419 15.46 15.46 0 01-4.575 12.577l-56.82 55.584a15.447 15.447 0 00-4.607 12.104 15.442 15.442 0 006.232 11.363l13.282 9.821a15.458 15.458 0 012.135 22.955L4.14 408.317a15.45 15.45 0 00-3.409 15.226 15.459 15.459 0 0011.608 10.427h369.515a15.442 15.442 0 0011.599-10.427 15.46 15.46 0 00-3.406-15.226z"
       id="path148" />
    <g
       id="g152">
      <path
         fill="#6abb8c"
         d="M390.048 408.317l-42.184-45.346a15.466 15.466 0 012.13-22.955l13.288-9.821a15.447 15.447 0 001.625-23.467l-56.823-55.584a15.494 15.494 0 01-4.572-12.577 15.456 15.456 0 016.957-11.419l3.401-2.214a15.455 15.455 0 006.98-11.694 15.46 15.46 0 00-4.996-12.681l-5.181-4.718L72.551 433.969h309.303a15.442 15.442 0 0011.599-10.427 15.458 15.458 0 00-3.405-15.225z"
         id="path150" />
    </g>
  </g>
  <path
     style="fill:#606060;fill-opacity:1;stroke:#000000;stroke-width:0;stroke-dasharray:none"
     d="m 83.179341,19.59457 v -6.36238 h 9.406955 9.406954 v 1.990683 1.990684 h 18.26745 18.26745 v 2.34198 2.341981 h -9.40696 c -6.21926,0 -9.40695,-0.02646 -9.40695,-0.07807 0,-0.05159 -3.01856,-0.07807 -8.89953,-0.07807 h -8.89953 v 1.912617 c 0,1.223035 0.0281,1.912617 0.0781,1.912617 0.0429,0 0.0781,0.08782 0.0781,0.195166 v 0.195165 h -9.445991 -9.445988 z m 18.345509,3.981367 v -1.834551 h -8.899521 -8.899526 v 1.834551 1.834551 h 8.899526 8.899521 z m 0,-3.981367 v -1.834551 h -8.899521 -8.899526 v 1.834551 1.834552 h 8.899526 8.899521 z m 18.26745,0 v -1.834551 h -8.89952 -8.89953 v 1.834551 1.834552 h 8.89953 8.89952 z m 18.18938,-0.07807 v -1.756485 h -8.86049 -8.86049 v 1.756485 1.756486 h 8.86049 8.86049 z m -36.53489,-4.059433 v -1.678419 h -8.860494 -8.860493 v 1.678419 1.67842 h 8.860493 8.860494 z"
     id="path1634" />
  <path
     style="fill:#606060;fill-opacity:1;stroke:#000000;stroke-width:0;stroke-dasharray:none"
     d="m 156.40526,21.780419 c 0,-0.0644 -0.0527,-0.117099 -0.11709,-0.117099 -0.0644,0 -0.1171,-0.05269 -0.1171,-0.117099 0,-0.06441 0.0351,-0.117099 0.0781,-0.117099 0.0499,0 0.0781,-0.689584 0.0781,-1.912618 0,-1.223034 -0.0282,-1.912617 -0.0781,-1.912617 -0.0429,0 -0.0781,-0.08782 -0.0781,-0.195165 v -0.195165 h 9.40695 9.40696 v 2.34198 2.341981 h -0.19517 c -0.12143,0 -0.19516,-0.04424 -0.19516,-0.117099 0,-0.103412 -1.05389,-0.117099 -9.01663,-0.117099 -7.96273,0 -9.01662,0.01369 -9.01662,0.117099 0,0.0644 -0.0351,0.117099 -0.0781,0.117099 -0.0429,0 -0.0781,-0.05269 -0.0781,-0.117099 z m 18.03325,-2.185849 v -1.834551 h -8.89952 -8.89953 v 1.782507 c 0,0.980379 0.0234,1.805927 0.052,1.834552 0.0286,0.02862 4.03341,0.05204 8.89952,0.05204 h 8.84748 z"
     id="path1636" />
  <path
     style="fill:#606060;fill-opacity:1;stroke:#000000;stroke-width:0;stroke-dasharray:none"
     d="m 83.179341,19.59457 v -6.36238 h 9.406955 9.406954 v 1.990683 1.990684 h 18.26745 18.26745 v 2.352892 2.352893 l -7.20159,-0.0501 c -3.96088,-0.02756 -12.19999,-0.0725 -18.30914,-0.09989 l -11.10755,-0.04978 0.0254,1.94304 c 0.014,1.068672 0.0544,2.022082 0.0898,2.118689 l 0.0644,0.175649 h -9.455096 -9.455093 z m 18.345509,3.981367 v -1.834551 h -8.899521 -8.899526 v 1.834551 1.834551 h 8.899526 8.899521 z m 0,-3.981367 v -1.834551 h -8.899521 -8.899526 v 1.834551 1.834552 h 8.899526 8.899521 z m 18.26745,0 v -1.834551 h -8.89952 -8.89953 v 1.834551 1.834552 h 8.89953 8.89952 z m 18.18938,-0.07807 v -1.756485 h -8.86049 -8.86049 v 1.756485 1.756486 h 8.86049 8.86049 z m -36.53489,-4.059433 v -1.678419 h -8.860494 -8.860493 v 1.678419 1.67842 h 8.860493 8.860494 z"
     id="path1638" />
  <path
     style="fill:#606060;fill-opacity:1;stroke:#000000;stroke-width:0;stroke-dasharray:none"
     d="m 83.179341,19.59457 v -6.36238 h 9.406955 9.406954 v 1.990683 1.990684 h 18.26745 18.26745 v 2.352892 2.352893 l -7.20159,-0.04991 c -3.96088,-0.02745 -12.20106,-0.07245 -18.31152,-0.1 l -11.10993,-0.05008 0.0304,1.943155 c 0.0167,1.068734 0.0582,2.022195 0.0922,2.118802 l 0.0618,0.175649 h -9.455096 -9.455093 z m 18.345509,3.981367 v -1.834551 h -8.899521 -8.899526 v 1.834551 1.834551 h 8.899526 8.899521 z m 0,-3.981367 v -1.834551 h -8.899521 -8.899526 v 1.834551 1.834552 h 8.899526 8.899521 z m 18.26745,0 v -1.834551 h -8.89952 -8.89953 v 1.834551 1.834552 h 8.89953 8.89952 z m 18.18938,-0.07807 v -1.756485 h -8.86049 -8.86049 v 1.756485 1.756486 h 8.86049 8.86049 z m -36.53489,-4.059433 v -1.678419 h -8.860494 -8.860493 v 1.678419 1.67842 h 8.860493 8.860494 z"
     id="path1640" />
  <path
     style="fill:#606060;fill-opacity:1;stroke:#000000;stroke-width:0;stroke-dasharray:none"
     d="m 83.179341,19.59457 v -6.36238 h 9.406955 9.406954 v 1.990683 1.990684 h 18.26745 18.26745 v 2.353475 2.353475 l -7.39676,-0.05048 c -4.06821,-0.02776 -12.30975,-0.07329 -18.31453,-0.101178 l -10.91778,-0.0507 0.0372,1.943751 c 0.0204,1.069063 0.0633,2.022793 0.0952,2.1194 l 0.0581,0.175649 h -9.455096 -9.455093 z m 18.345509,3.981367 v -1.834551 h -8.899521 -8.899526 v 1.834551 1.834551 h 8.899526 8.899521 z m 0,-3.981367 v -1.834551 h -8.899521 -8.899526 v 1.834551 1.834552 h 8.899526 8.899521 z m 18.26745,0 v -1.834551 h -8.89952 -8.89953 v 1.834551 1.834552 h 8.89953 8.89952 z m 18.18938,-0.07807 v -1.756485 h -8.86049 -8.86049 v 1.756485 1.756486 h 8.86049 8.86049 z m -36.53489,-4.059433 v -1.678419 h -8.860494 -8.860493 v 1.678419 1.67842 h 8.860493 8.860494 z"
     id="path1642" />
  <path
     style="fill:#606060;fill-opacity:1;stroke:#000000;stroke-width:0;stroke-dasharray:none"
     d="M 101.99813,15.217994 V 13.227311 H 96.777465 91.5568 v -0.02928 -0.02928 h 5.230424 5.230426 v 2.005321 2.005321 h 6.11842 c 5.43209,0 6.11842,0.0016 6.11842,0.01464 0,0.013 -0.68741,0.01464 -6.12818,0.01464 h -6.12818 z"
     id="path1644" />
  <path
     style="fill:#606060;fill-opacity:1;stroke:#000000;stroke-width:0;stroke-dasharray:none"
     d="m 101.39071,15.46439 -0.002,-1.666222 -4.91816,-0.0049 -4.918159,-0.0049 4.944995,-0.0024 4.944994,-0.0024 v 1.67354 1.673541 h -0.0244 -0.0244 z"
     id="path1648" />
  <path
     style="fill:#606060;fill-opacity:1;stroke:#000000;stroke-width:0;stroke-dasharray:none"
     d="M 101.99813,15.217994 V 13.227311 H 96.777465 91.5568 v -0.02928 -0.02928 h 5.230424 5.230426 v 0.268352 0.268352 h 0.26347 0.26347 v 1.497892 1.497891 h 5.85495 5.85495 v 0.234199 0.234198 l -6.12086,0.002 -6.12086,0.002 4.85961,0.0063 c 2.67278,0.0035 5.4151,0.0079 6.09403,0.0097 1.12944,0.0031 1.04603,0.004 -0.98071,0.0098 -1.21832,0.0035 -3.96392,0.007 -6.10135,0.0078 l -3.88622,0.0014 z"
     id="path1650" />
  <path
     style="fill:#606060;fill-opacity:1;stroke:#000000;stroke-width:0;stroke-dasharray:none"
     d="m 101.99813,19.59457 v -1.829672 h 6.12818 c 5.44077,0 6.12818,0.0016 6.12818,0.01464 0,0.013 -0.6847,0.01464 -6.10378,0.01464 h -6.10379 v 1.805276 1.805277 h 6.10379 c 4.06268,0 6.10378,0.0033 6.10378,0.0098 0,0.0065 -2.04923,0.0098 -6.12818,0.0098 h -6.12818 z"
     id="path1652" />
  <path
     style="fill:#606060;fill-opacity:1;stroke:#000000;stroke-width:0;stroke-dasharray:none"
     d="m 89.419743,21.77066 v -0.02439 h 6.050117 6.05012 v 0.02439 0.0244 h -6.05012 -6.050117 z"
     id="path1656" />
  <path
     style="fill:#606060;fill-opacity:1;stroke:#000000;stroke-width:0;stroke-dasharray:none"
     d="m 101.92006,21.769268 v -0.02579 l 3.83256,0.0063 c 5.11778,0.0084 6.36482,0.01467 6.36482,0.03204 0,0.01116 -0.80874,0.01326 -5.09869,0.01326 h -5.09869 z"
     id="path1658" />
  <path
     style="fill:#606060;fill-opacity:1;stroke:#000000;stroke-width:0;stroke-dasharray:none"
     d="m 102.05668,25.63629 c 0,-0.0073 -0.011,-0.02945 -0.0244,-0.04922 -0.0134,-0.01977 -0.0244,-0.03795 -0.0244,-0.04039 0,-0.0024 0.0132,-0.0044 0.0293,-0.0044 0.029,0 0.0293,5.42e-4 0.0293,0.05367 0,0.02952 -0.002,0.05367 -0.005,0.05367 -0.003,0 -0.005,-0.006 -0.005,-0.01328 z"
     id="path1662" />
  <path
     style="fill:#606060;fill-opacity:1;stroke:#000000;stroke-width:0;stroke-dasharray:none"
     d="m 92.578977,26.003302 c 1.740263,-0.0014 4.587965,-0.0014 6.328227,0 1.740266,0.0014 0.316411,0.0025 -3.164113,0.0025 -3.480525,0 -4.904376,-0.0011 -3.164114,-0.0025 z"
     id="path1664" />
  <path
     style="fill:#606060;fill-opacity:1;stroke:#000000;stroke-width:0;stroke-dasharray:none"
     d="m 89.419743,25.981346 c 0,-0.0195 0.0065,-0.01952 6.323348,-0.01952 6.316839,0 6.323349,2e-5 6.323349,0.01952 0,0.0195 -0.007,0.01952 -6.323349,0.01952 -6.316842,0 -6.323348,-2e-5 -6.323348,-0.01952 z"
     id="path1670" />
</svg>
