<?xml version="1.0" encoding="UTF-8" standalone="no"?>
<svg
   width="189.553"
   height="44.795"
   version="1.1"
   viewBox="0 0 189.553 44.795"
   xmlSpace="preserve"
   id="svg156"
   xmlns="http://www.w3.org/2000/svg"
   xmlnsSvg="http://www.w3.org/2000/svg">
  <defs
     id="defs160" />
  <g
     transform="translate(-75.3 -76.63)"
     id="g82">
    <g
       transform="translate(-30.15 -3.667)"
       id="g14">
      <path
         fill="#bfbfbf"
         d="M116.41 122.17l1.093-1.206.95.917c.522.504 1.31.916 1.75.916h.8v-11h9.425l4.075-4.877 80.25-.311c44.138-.172 80.25-.208 80.25-.082 0 .127-1.575 2.693-3.5 5.702l-3.5 5.472v4.214l2-1.236v1.059c0 1.463 6.486 1.353-88.593 1.502l-86.093.136zm19.869-27.123c.317-5.912.882-11.537 1.257-12.5.789-2.027 3.068-2.326 3.805-.5l.504 1.25.08-1.25.078-1.25h1.393c1.683 0 2.607 2.155 2.607 6.082v2.918h1.89l.75 9.5.36-11.5h5.104l1.046-3c1.075-3.083 2.253-3.775 3.365-1.976l.632 1.023 11.768-.465 1.582 1.582-3.497 2.557v18.28h-33.3zm33.724 6.25v-4.5l20.5-.367-16-1.266 15.333-.367.76-2.28 15.407-.136.116-3.042.116-3.042.423 2c.232 1.1.639 3.012.903 4.25l.48 2.25h4.852l.75-9.5.36 9.5h31.89l.749-9.5.36 9.5 2.5.03-3 1.94 12.25.015 22.564.015v9h-111.31zm42.269-5.156c-.677-.274-2.027-.29-3-.037l-1.769.461 6 .074zm25.981-.088c-4.537-.185-11.962-.185-16.5 0l-8.25.337h33z"
         id="path2" />
      <path
         fill="#a3a3a3"
         d="M116.73 122.68c.678-.683 1.485-.99 1.793-.683.308.308-.247.867-1.233 1.243l-1.793.683zm4.267-5.084v-5.792h9.756l2.865-4.315 160.38-.963-.004.889c-.003.489-1.35 2.914-2.996 5.39l-2.991 4.5-.004 2.308-.004 2.31 2.5-1.503-2.506 3.095-45.495-.23-2.361-1.514-1.037 1.678-39.602-.145-2.362-1.532-1.1 1.78-4.269-.135c-2.348-.073-4.8-.474-5.45-.89l-1.18-.756-1.086 1.756-33.887-.223-.74-.741-.742-.742-2.846 2.363-1.79-1.118-1.791-1.119-2.307 2.307-3.857-2.41-1.082 1.751-14.011-.208zm15-19.233v-7.441l2.162-1.336-.622-2.476c-.341-1.362-.348-3.338-.013-4.391l.607-1.915h1.35c.742 0 1.576.562 1.853 1.25l.505 1.25.079-1.25.079-1.25h3v8.9l2.85 1.6.407 4 .407 4 .168-5.75.168-5.75h5.75l1.2-6h1.025a1.03 1.03 0 011.025 1.03v1.03l12.033-.36 1.467 1.574-2.5.892v19.834h-33zm34 2.94v-4.5h20v-4l3.25-.142c3.317-.145 5.745-.136 11.5.042l3.25.1v4h73.314v9H170z"
         id="path4" />
      <path
         fill="#8c8c8c"
         d="M121.68 123.15c-.376-.376-.683-3.083-.683-6.017V111.8h9.756l1.427-2.15 1.427-2.148 80.195-.493c44.107-.27 80.195-.236 80.195.078 0 .313-1.615 3.28-3.589 6.594l-3.588 6.024 1.315 2.128 1.18-.658c.65-.361.387.185-.585 1.215l-1.766 1.87-3.71-2.317-2.307 2.307-3.858-2.41-.517.837-.517.837h-16.117l-.517-.837-.517-.836-3.857 2.409-2.307-2.307-3.693 2.307-2.307-2.307-3.693 2.307-2.307-2.307-3.693 2.307-2.307-2.307-1.79 1.118-1.791 1.119-2.846-2.363-.74.74c-.406.406-4.304.806-8.661.889l-7.923.15-.543-.877-.542-.878-3.858 2.409-2.306-2.307-3.694 2.307-2.306-2.307-3.694 2.307-2.306-2.307-1.79 1.119-1.791 1.118-2.81-2.332-2.403 2.402-3.693-2.307-2.307 2.307-3.857-2.41-1.11 1.798-4.917-.177c-2.704-.098-5.223-.485-5.599-.86l-.682-.683-3.735 2.332-2.306-2.307-3.694 2.307-2.306-2.307-3.694 2.307-2.306-2.307-1.79 1.118-1.791 1.119-2.81-2.332-2.403 2.402-3.693-2.307-2.307 2.307-3.693-2.307-1.89 1.89zm14.317-24.791v-7.441l2.162-1.336-.621-2.476c-.342-1.362-.348-3.338-.014-4.391l.608-1.915h1.349c.742 0 1.576.563 1.854 1.25l.504 1.25.079-1.25.079-1.25h3v8.9l2.851 1.6.406 4 .407 4 .168-5.75.168-5.75h6v-1.878c0-1.032.675-2.437 1.5-3.122l1.5-1.245v2.306l12.033-.361 1.467 1.574-2.5.893V105.8h-33zm34 2.941v-4.5h20v-4h18v3.75h73.314v9.25h-111.31z"
         id="path6" />
      <path
         fill="#308fbf"
         strokeWidth="0.465"
         d="M105.45 124.37l1.587-.547 3.518-.426c.537.105 2.05-2.142 2.837-1.31l1.552 1.384 1.768-2.244.751 2.143 3.076-1.443h4.844l4.189-1.023 82.489-.066c45.369-.036 76.507.725 78.079 1.555.944.498-.704.391-1.347.994l-.563.707-1.25.178-3.225.357c-29.34 1.196-55.464-.309-85.41-.3l-88.494.03z"
         id="path8" />
      <path
         fill="#767676"
         d="M125.56 122.89l-.56-.906-3.998 1.045v-11.233h9.887l2.651-3.785 80.231-.358c44.127-.196 80.231-.299 80.231-.228 0 .071-1.566 2.73-3.48 5.908l-3.479 5.778.588 2.343.588 2.342h-1.55c-.851 0-1.821-.44-2.154-.98l-.606-.979-3.857 2.41-2.307-2.307-3.693 2.306-2.356-2.356-3.694 1.977-3.693-1.977-2.357 2.356-3.693-2.306-2.307 2.306-3.693-2.306-2.307 2.306-3.693-2.306-2.307 2.306-3.693-2.306-2.307 2.306-3.693-2.306-2.307 2.306-3.693-2.306-2.307 2.306-3.58-2.236-3.343 1.87-3.72-1.99-2.092 2.092-3.908-2.092-2.357 2.356-3.693-2.306-2.307 2.306-3.693-2.306-2.307 2.306-3.693-2.306-2.307 2.306-3.693-2.306-1.153 1.153-1.154 1.122-1.846-1.122-1.847-1.153-1.153 1.153-1.154 1.09-1.79-1.055-1.79-1.118-3.343 1.87-3.72-1.99-2.092 2.092-3.908-2.092-2.357 2.356-3.693-2.306-2.307 2.306-3.693-2.306-2.307 2.306-3.693-2.306-2.307 2.306-3.693-2.306-2.307 2.306-3.629-2.266-1.41.893c-1.805 1.143-2.654 1.147-3.353.017zm10.442-24.594v-7.5h2v-10h.917c.504 0 1.145.562 1.424 1.25l.507 1.25 2.152-3 .985 1.5c.541.825.991 3.187 1 5.25l.015 3.75h2.885l.383 4.25.383 4.25.174-5.75.175-5.75h5.861l.64-4.497 7.5.344c8.166.374 9.398.79 6.74 2.278l-1.74.974v18.901h-32zm34 3v-4.5h20v-2.853l17.323-.647.455 1.75.456 1.75h72.58v9h-110.81z"
         id="path10" />
      <path
         fill="#606060"
         d="M125.48 122.97l-.634-1.026-3.35.553-.604-10.5h10.97l1.204-3.796 80.215-.395c44.118-.218 80.32-.348 80.445-.29.127.06-1.38 2.682-3.349 5.83l-3.58 5.722.62 2.464.618 2.464h-1.46c-.803 0-1.74-.45-2.08-1.002l-.62-1.003-4.006 2.144-2.872-2.383-3 2.49-3-2.49-3 2.49-3-2.49-2.873 2.383-3.821-2.045-2.092 2.092-3.908-2.092-2.092 2.092-3.908-2.092-2.356 2.356-3.694-2.306-2.306 2.306-3.581-2.236-3.474 1.944-1.448-1.201-1.447-1.201-3 2.49-3-2.49-3 2.49-3-2.49-3 2.49-3-2.49-2.873 2.383-3.821-2.045-2.092 2.092-3.908-2.092-2.092 2.092-3.908-2.092-1.178 1.178-1.178.991-1.79-.93-1.791-1.119-3.562 1.994-2.114-2.114-3.821 2.045-2.872-2.383-3 2.49-3-2.49-3 2.49-3-2.49-2.873 2.383-3.821-2.045-2.092 2.092-3.908-2.092-2.092 2.092-3.766-2.016-1.82 1.019-1.821 1.019-2.114-2.114-3.821 2.045-1.22-1.012-1.22-1.012-1.466.927c-1.905 1.205-2.706 1.19-3.483-.068zm10.516-24.473v-7.5h2v-10h.917c.504 0 1.145.563 1.424 1.25l.507 1.25 2.152-3 .985 1.5c.541.825.991 3.188 1 5.25l.015 3.75h2.885l.383 4.25.383 4.25.174-5.75.175-5.75h6V86.08c0-2.49.625-2.646 8.978-2.251l7.022.332v.918c0 .505-.675.918-1.5.918h-1.5v20h-32zm34 3v-4.5h20v-3h18v3h72.814v9H170z"
         id="path12" />
    </g>
    <g
       fill="#a6a6a6"
       transform="translate(-.75 -.75)"
       id="g42">
      <path
         strokeWidth="1.008"
         d="M159.91 90.583H177.91V94.423H159.91z"
         id="path16" />
      <path
         strokeWidth="1.048"
         d="M159.91 94.663H177.91V98.813H159.91z"
         id="path18" />
      <path
         strokeWidth="0.995"
         d="M159.91 99.143H177.91V102.883H159.91z"
         id="path20" />
      <path
         strokeWidth="1.048"
         d="M141.66 94.663H159.66V98.813H141.66z"
         id="path22" />
      <path
         strokeWidth="0.995"
         d="M141.66 99.143H159.66V102.883H141.66z"
         id="path24" />
      <path
         strokeWidth="1.048"
         d="M196.41 94.663H214.41V98.813H196.41z"
         id="path26" />
      <path
         strokeWidth="0.995"
         d="M196.41 99.143H214.41V102.883H196.41z"
         id="path28" />
      <path
         strokeWidth="1.048"
         d="M214.66 94.663H232.66V98.813H214.66z"
         id="path30" />
      <path
         strokeWidth="0.995"
         d="M214.66 99.143H232.66V102.883H214.66z"
         id="path32" />
      <path
         strokeWidth="1.048"
         d="M233.06 94.663H251.06V98.813H233.06z"
         id="path34" />
      <path
         strokeWidth="0.995"
         d="M233.06 99.143H251.06V102.883H233.06z"
         id="path36" />
      <path
         strokeWidth="1.048"
         d="M178.16 94.663H196.16V98.813H178.16z"
         id="path38" />
      <path
         strokeWidth="0.995"
         d="M178.16 99.143H196.16V102.883H178.16z"
         id="path40" />
    </g>
    <g
       strokeWidth="1.008"
       transform="translate(-1.25 -.5)"
       id="g70">
      <path
         fill="#4d4d4d"
         d="M160.16 90.683H178.16V94.52300000000001H160.16z"
         id="path44" />
      <path
         fill="#262626"
         d="M160.16 94.763H178.16V98.60300000000001H160.16z"
         id="path46" />
      <path
         fill="#404040"
         d="M160.16 98.843H178.16V102.683H160.16z"
         id="path48" />
      <path
         fill="#308fbf"
         d="M141.91 94.763H159.91V98.60300000000001H141.91z"
         id="path50" />
      <path
         fill="#262626"
         d="M141.91 98.843H159.91V102.683H141.91z"
         id="path52" />
      <path
         fill="#308fbf"
         d="M196.66 94.763H214.66V98.60300000000001H196.66z"
         id="path54" />
      <path
         fill="#595959"
         d="M196.66 98.843H214.66V102.683H196.66z"
         id="path56" />
      <path
         fill="#262626"
         d="M214.91 94.763H232.91V98.60300000000001H214.91z"
         id="path58" />
      <path
         fill="#308fbf"
         d="M214.91 98.843H232.91V102.683H214.91z"
         id="path60" />
      <path
         fill="#4d4d4d"
         d="M233.16 94.763H251.16V98.60300000000001H233.16z"
         id="path62" />
      <path
         fill="#262626"
         d="M233.16 98.843H251.16V102.683H233.16z"
         id="path64" />
      <path
         fill="#8c8c8c"
         d="M178.41 94.763H196.41V98.60300000000001H178.41z"
         id="path66" />
      <path
         fill="#308fbf"
         d="M178.41 98.843H196.41V102.683H178.41z"
         id="path68" />
    </g>
    <g
       transform="translate(85.164 76.833)"
       id="g80">
      <path
         fill="#4d4d4d"
         strokeWidth="0.926"
         d="M167.62 25.125l2.251-22.375v23"
         id="path72" />
      <path
         fill="#737373"
         strokeWidth="0.855"
         d="M168.082 25.375L170 3v23"
         id="path74" />
      <path
         fill="#bfbfbf"
         strokeWidth="0.476"
         d="M169.28 25l.595-22.375v23"
         id="path76" />
      <path
         fill="#a6a6a6"
         d="M46.492 8.75H53.739999999999995V11.402000000000001H46.492z"
         id="path78" />
    </g>
  </g>
  <path
     fill="#ff2a2a"
     fillOpacity="1"
     stroke="#00f"
     strokeWidth="0.085"
     d="M65.374 19.564v-1.885h17.91v3.77h-17.91z"
     id="path84"
     style="stroke:#000000;stroke-opacity:1;stroke-width:0;stroke-dasharray:none" />
  <path
     fill="#ff2a2a"
     fillOpacity="1"
     stroke="#00f"
     strokeWidth="0.085"
     d="M120.142 23.617v-1.885h17.91v3.771h-17.91z"
     id="path86"
     style="stroke:#000000;stroke-opacity:1;stroke-width:0;stroke-dasharray:none" />
  <path
     fill="red"
     stroke="#00f"
     strokeWidth="0.085"
     d="M156.622 19.564v-1.885h17.91v3.77h-17.91z"
     id="path88" />
  <path
     fill="#a00"
     stroke="#00f"
     strokeWidth="0.085"
     d="M156.716 19.564v-1.791h17.722v3.582h-17.722z"
     id="path90"
     style="stroke:#000000;stroke-opacity:1;stroke-width:0;stroke-dasharray:none" />
  <path
     fill="#a00"
     stroke="#00f"
     strokeWidth="0.085"
     d="M65.374 23.617v-1.885h17.91v3.771h-17.91z"
     id="path92"
     style="stroke:#000000;stroke-opacity:1;stroke-width:0;stroke-dasharray:none" />
  <path
     fill="#f2f2f2"
     stroke="#00f"
     strokeWidth="0.085"
     d="M101.948 19.564v-1.885h17.911v3.77h-17.911z"
     id="path94" />
  <path
     fill="#ff8080"
     stroke="#00f"
     strokeWidth="0.085"
     d="M138.429 23.617v-1.885h17.91v3.771h-17.91z"
     id="path96"
     style="stroke:#000000;stroke-opacity:1;stroke-width:0;stroke-dasharray:none" />
  <path
     fill="#00f"
     stroke="#00f"
     strokeWidth="0.085"
     d="M83.661 19.564v-1.885h17.91v3.77h-17.91z"
     id="path98" />
  <path
     fill="#00f"
     stroke="#00f"
     strokeWidth="0.085"
     d="M83.661 23.617v-1.885h17.91v3.771h-17.91z"
     id="path100" />
  <path
     fill="#a00"
     fillOpacity="1"
     stroke="#00f"
     strokeWidth="0.085"
     d="M156.622 23.617v-1.885h17.91v3.771h-17.91z"
     id="path102"
     style="stroke:#000000;stroke-opacity:1;stroke-width:0;stroke-dasharray:none" />
  <path
     fill="#ff2a2a"
     fillOpacity="1"
     stroke="#00f"
     strokeWidth="0.12"
     d="M138.444 19.534v-1.866h17.864V21.4h-17.864z"
     id="path104"
     style="stroke:#000000;stroke-opacity:1;stroke-width:0;stroke-dasharray:none" />
  <path
     fill="#00f"
     stroke="#00f"
     strokeWidth="0.12"
     d="M83.653 15.501v-1.833h17.864v3.596l-8.932.035-8.932.035z"
     id="path106" />
  <path
     fill="red"
     stroke="#00f"
     strokeWidth="0.12"
     d="M83.653 15.468v-1.8h17.864v3.6H83.653z"
     id="path108" />
  <path
     fill="#ff2a2a"
     fillOpacity="1"
     stroke="#00f"
     strokeWidth="0.12"
     d="M83.787 23.6v-1.8h17.73v3.6h-17.73z"
     id="path110"
     style="stroke:#000000;stroke-opacity:1;stroke-width:0;stroke-dasharray:none" />
  <path
     fill="#ff8080"
     stroke="#00f"
     strokeWidth="0.12"
     d="M83.787 15.468v-1.666h17.597v3.332H83.787z"
     id="path112"
     style="stroke:#000000;stroke-opacity:1;stroke-width:0;stroke-dasharray:none" />
  <path
     fill="#a00"
     stroke="#00f"
     strokeWidth="0.12"
     d="M83.787 19.6v-1.8h17.73v3.6h-17.73z"
     id="path114"
     style="stroke:#000000;stroke-opacity:1;stroke-width:0;stroke-dasharray:none" />
  <path
     fill="#a00"
     stroke="#00f"
     strokeWidth="0.12"
     d="M101.917 23.667V21.8h17.864v3.733h-17.864z"
     id="path116"
     style="stroke:#000000;stroke-opacity:1;stroke-width:0;stroke-dasharray:none" />
  <path
     fill="red"
     stroke="#00f"
     strokeWidth="0.12"
     d="M120.18 19.534v-1.866h17.864V21.4h-17.863z"
     id="path118" />
  <path
     fill="#ff8080"
     stroke="#00f"
     strokeWidth="0.12"
     d="M120.314 19.534V17.8h17.597v3.466h-17.597z"
     id="path120"
     style="stroke:#000000;stroke-opacity:1;stroke-width:0;stroke-dasharray:none" />
  <path
     fill="#a00"
     fillOpacity="1"
     stroke="#00f"
     strokeWidth="0.12"
     d="M102.05 19.6v-1.8h17.731v3.6H102.05z"
     id="path122"
     style="stroke:#000000;stroke-opacity:1;stroke-width:0;stroke-dasharray:none" />
  <g
     transform="translate(154.882 .75) scale(.26086)"
     id="g154">
    <path
       fill="#3e4347"
       d="M62 33.9v-7.4c0-1.3-1.1-2.4-2.4-2.4h-3.2l2.8-1.6c1.1-.7 1.5-2.1.9-3.2l-3.7-6.4c-.7-1.1-2.1-1.5-3.2-.9l-2.8 1.6 1.6-2.8c.7-1.1.3-2.6-.9-3.2l-6.4-3.7c-1.1-.7-2.6-.3-3.2.9l-1.6 2.8V4.4c0-1.3-1.1-2.4-2.4-2.4h-7.4c-1.3 0-2.4 1.1-2.4 2.4v3.2l-1.6-2.8c-.7-1.1-2.1-1.5-3.2-.9l-6.4 3.7c-1.1.7-1.5 2.1-.9 3.2L8.8 23.1l20.6 11.5 12.1 20.9c.7 1.1 2.1 1.5 3.2.9l6.4-3.7c1.1-.7 1.5-2.1.9-3.2l-1.6-2.8 2.8 1.6c1.1.7 2.6.3 3.2-.9l3.7-6.4c.7-1.1.3-2.6-.9-3.2l-2.7-1.6h3.2c1.2 0 2.3-1 2.3-2.3"
       id="path124" />
    <g
       fill="#f4bc58"
       id="g130">
      <path
         d="M16.4 58c-4.4-1.9-.5-5.5-4.5-5.7-4-.2-6.7-2.8-6.7-2.8 4.6-2.1 8.3 3.5 12.7-1.2-3.8 6.3.2 10.4-1.5 9.7"
         id="path126" />
      <path
         d="M29.5 61.7c-4.5 0-5.5-1.3-7.6-.7-4.5 1.3-6.5.9-6.5.9 4.5-3.4 8.7-2.4 9.3-8.8.3 5.7 6.7 8.6 4.8 8.6"
         id="path128" />
    </g>
    <g
       fill="#3e4347"
       id="g136">
      <path
         d="M40.1 31.6c0 11.1-7.7 20.2-17.1 20.2-9.4 0-31-15-15.7-31.1 5.1-5.4 2.9 5.2 17.5 5.2 9.4-.1 15.3-5.5 15.3 5.7"
         id="path132" />
      <path
         d="M30.8 49.5c0 2.3-3.2 7.3-6 7.3s-6-3.4-6-5.7c0-2.3 12-2.7 12-1.6"
         id="path134" />
    </g>
    <g
       fill="#51575c"
       id="g142">
      <path
         d="M15.6 33.9c-2 12.3 13.4 20.6 19.8 20.6s-.3-7.1 8.8-14.7C52.5 32.9 32.4 34 26 34c-6.4 0-9.4-6.1-10.4-.1"
         id="path138" />
      <path
         d="M17.6 20.2c.4 3.1 2.1 5.9 4.6 7.4 2.5 1.5 5.5 1.4 8.4.5 2.9-.8 5.5-2.4 8.1-4 2.6-1.7 5-3.6 7.6-5.5-1.9 2.5-4.1 4.8-6.6 6.8s-5.3 3.7-8.5 4.7c-1.6.4-3.3.7-5 .6-1.7-.2-3.4-.7-4.8-1.7-2.9-2.2-4.2-5.7-3.8-8.8"
         id="path140" />
    </g>
    <path
       fill="#f29a2e"
       d="M6.2 16c3.2.9 3.7 3.3 5 1.6 2.2-2.6-.2-5.9-2.7-6.8C4.3 9.2 2 17.6 2 17.6s2.1-2.1 4.2-1.6"
       id="path144" />
    <path
       fill="#ed4c5c"
       d="M5 22c-.7 1-2.9 3.6-2 4.5.7.7 3.8-1.5 3.8-1.5s-.3 4 .8 4.2c2 .4 2.6-6.1 4.5-7 1.5-.7 6.2.7 6.2-2.3.1-3 .1-10.8-2.5-12.9-2.5-2-6-2.1-9.7 3.5-2.2 3.6 3.8 5-1.1 11.5"
       id="path146" />
    <g
       fill="#3e4347"
       id="g152">
      <ellipse
         cx="5"
         cy="13.5"
         rx="0.6"
         ry="0.3"
         id="ellipse148" />
      <path
         d="M7.2 12.5s-.4-2.4 2.6-2.9c0 0 .9 4.2-2.6 2.9"
         id="path150" />
    </g>
  </g>
  <path
     style="fill:#606060;fill-opacity:1;stroke:#000000;stroke-width:0;stroke-dasharray:none;stroke-opacity:1"
     d="m 83.17879,19.59118 v -6.404809 h 9.418837 9.418833 v 2.009352 2.009351 h 18.25161 18.25162 v 2.344244 2.344244 h -9.41884 c -6.22341,0 -9.41884,-0.0284 -9.41884,-0.08372 0,-0.05529 -3.02798,-0.08372 -8.91649,-0.08372 h -8.9165 v 1.925629 c 0,1.227937 0.0303,1.925628 0.0837,1.925628 0.0461,0 0.0837,0.09419 0.0837,0.209308 v 0.209307 H 92.597627 83.17879 Z m 18.39976,3.997772 -0.0226,-1.820975 -8.895571,-0.02131 -8.895568,-0.02131 v 1.842287 1.842285 h 8.918131 8.918128 z m 0,-3.976842 0.0226,-1.820975 h -8.918128 -8.918131 v 1.842287 1.842286 l 8.895568,-0.02131 8.895571,-0.02131 z m 18.27091,0.02093 v -1.841906 h -8.9165 -8.9165 v 1.841906 1.841906 h 8.9165 8.9165 z m 18.08417,-0.08372 v -1.758183 h -8.83278 -8.83278 v 1.758183 1.758183 h 8.83278 8.83278 z M 101.4304,15.488753 v -1.716321 h -8.832773 -8.832776 v 1.716321 1.716321 h 8.832776 8.832773 z"
     id="path1620" />
  <path
     style="fill:#606060;fill-opacity:1;stroke:#000000;stroke-width:0;stroke-dasharray:none;stroke-opacity:1"
     d="m 156.28989,21.768326 c -0.12581,-0.142891 -0.13654,-0.293379 -0.0209,-0.293379 0.0534,0 0.0837,-0.697692 0.0837,-1.925629 0,-1.227937 -0.0303,-1.925629 -0.0837,-1.925629 -0.046,0 -0.0837,-0.09419 -0.0837,-0.209307 v -0.209308 h 9.41883 9.41884 v 2.344244 2.344244 h -0.20931 c -0.11512,0 -0.2093,-0.03768 -0.2093,-0.08372 0,-0.0553 -3.05589,-0.08372 -9.00023,-0.08372 -5.94433,0 -9.00022,0.02843 -9.00022,0.08372 0,0.121984 -0.19241,0.09654 -0.31396,-0.04151 z m 18.18882,-2.219008 v -1.800044 l -8.89557,-0.02131 -8.89556,-0.02131 v 1.842667 1.842667 l 8.89556,-0.02131 8.89557,-0.02131 z"
     id="path1622" />
</svg>
