<?xml version="1.0" encoding="UTF-8" standalone="no"?>
<!-- Created with Inkscape (http://www.inkscape.org/) -->

<svg
   width="185.06593"
   height="36.121952"
   viewBox="0 0 48.965362 9.5572665"
   version="1.1"
   id="svg331"
   xmlns="http://www.w3.org/2000/svg"
   xmlns:svg="http://www.w3.org/2000/svg">
  <defs
     id="defs328" />
  <g
     id="layer2"
     transform="translate(-139.43991,-159.79462)">
    <path
       style="fill:#b3b3b3;stroke:#000000;stroke-width:0"
       d="m 144.71235,166.62662 h 42.43595 l -1.89098,1.85177 0.44494,0.80359 -44.32695,0.0699 v -2.02646 l 2.8921,0.0699 z"
       id="path750" />
    <path
       style="fill:#b3b3b3;stroke:#000000;stroke-width:0"
       d="m 145.09563,166.41307 h 8.35309 v -5.11679 l 0.92016,-0.54472 h -4.17461 v 0.82281 h -1.62723 v 2.66963 l -0.53319,0.14649 v -2.03748 h -0.66011 v -2.55839 h -1.73571 v 2.72525 l -0.63441,0.1743 z"
       id="path1468" />
    <g
       id="g2550"
       transform="matrix(0.93824446,0,0,1,7.1624975,-0.03455118)"
       style="fill:#3d5cff;fill-opacity:1">
      <path
         style="fill:#3d5cff;fill-opacity:1;stroke:#000000;stroke-width:0"
         d="m 140.9988,169.37753 h 6.53494 v -0.20793 l -1.63745,-0.60894 -1.63745,0.60894 -1.63744,-0.60894 -1.63745,0.60894 z"
         id="path2405" />
      <path
         style="fill:#3d5cff;fill-opacity:1;stroke:#000000;stroke-width:0"
         d="m 147.52632,169.37754 h 6.53494 v -0.20793 l -1.63745,-0.60894 -1.63745,0.60894 -1.63744,-0.60894 -1.63745,0.60894 z"
         id="path2405-3" />
      <path
         style="fill:#3d5cff;fill-opacity:1;stroke:#000000;stroke-width:0"
         d="m 154.02784,169.3701 h 6.53494 v -0.20793 l -1.63745,-0.60894 -1.63745,0.60894 -1.63744,-0.60894 -1.63745,0.60894 z"
         id="path2405-5" />
      <path
         style="fill:#3d5cff;fill-opacity:1;stroke:#000000;stroke-width:0"
         d="m 160.55536,169.37011 h 6.53494 v -0.20793 l -1.63745,-0.60894 -1.63745,0.60894 -1.63744,-0.60894 -1.63745,0.60894 z"
         id="path2405-3-3" />
      <path
         style="fill:#3d5cff;fill-opacity:1;stroke:#000000;stroke-width:0"
         d="m 167.08072,169.3701 h 6.53494 v -0.20793 l -1.63745,-0.60894 -1.63745,0.60894 -1.63744,-0.60894 -1.63745,0.60894 z"
         id="path2405-7" />
      <path
         style="fill:#3d5cff;fill-opacity:1;stroke:#000000;stroke-width:0"
         d="m 173.60824,169.37011 h 6.53494 v -0.20793 l -1.63745,-0.60894 -1.63745,0.60894 -1.63744,-0.60894 -1.63745,0.60894 z"
         id="path2405-3-7" />
      <path
         style="fill:#3d5cff;fill-opacity:1;stroke:#000000;stroke-width:0"
         d="m 180.10976,169.36267 h 6.53494 v -0.20793 l -1.63745,-0.60894 -1.63745,0.60894 -1.63744,-0.60894 -1.63745,0.60894 z"
         id="path2405-5-1" />
      <path
         style="fill:#3d5cff;fill-opacity:1;stroke:#000000;stroke-width:0"
         d="m 186.63728,169.36268 h 6.53494 v -0.20793 l -1.63745,-0.60894 -1.63745,0.60894 -1.63744,-0.60894 -1.63745,0.60894 z"
         id="path2405-3-3-9" />
    </g>
    <rect
       style="fill:#c150e2;stroke:#000000;stroke-width:0;fill-opacity:1"
       id="rect2671"
       width="6.0743036"
       height="1.4944181"
       x="153.72807"
       y="164.93109" />
    <rect
       style="fill:#ff00ff;stroke:#000000;stroke-width:0"
       id="rect2671-2"
       width="6.0743036"
       height="1.4944181"
       x="160.08067"
       y="164.93283" />
    <rect
       style="fill:#d92663;stroke:#000000;stroke-width:0;fill-opacity:1"
       id="rect2671-2-8"
       width="6.0743036"
       height="1.4944181"
       x="166.43442"
       y="164.92952" />
    <rect
       style="fill:#d92663;stroke:#000000;stroke-width:0;fill-opacity:1"
       id="rect2671-2-8-0"
       width="6.0743036"
       height="1.4944181"
       x="172.77242"
       y="164.92952" />
    <rect
       style="fill:#ff00ff;stroke:#000000;stroke-width:0"
       id="rect2671-2-8-0-0"
       width="6.0743036"
       height="1.4944181"
       x="179.12083"
       y="164.93144" />
    <rect
       style="fill:#ff00ff;stroke:#000000;stroke-width:0"
       id="rect2671-9"
       width="6.0743036"
       height="1.4944181"
       x="153.7262"
       y="163.26544" />
    <rect
       style="fill:#c150e2;stroke:#000000;stroke-width:0;fill-opacity:1"
       id="rect2671-2-84"
       width="6.0743036"
       height="1.4944181"
       x="160.0788"
       y="163.26718" />
    <rect
       style="fill:#d92663;stroke:#000000;stroke-width:0;fill-opacity:1"
       id="rect2671-2-84-7"
       width="6.0743036"
       height="1.4944181"
       x="160.08069"
       y="161.58298" />
    <rect
       style="fill:#ff00ff;stroke:#000000;stroke-width:0"
       id="rect2671-2-8-8"
       width="6.0743036"
       height="1.4944181"
       x="166.43254"
       y="163.26389" />
    <rect
       style="fill:#c150e2;stroke:#000000;stroke-width:0;fill-opacity:1"
       id="rect2671-2-8-0-7"
       width="6.0743036"
       height="1.4944181"
       x="172.77054"
       y="163.26389" />
    <rect
       style="fill:#c150e2;stroke:#000000;stroke-width:0;fill-opacity:1"
       id="rect2671-2-8-0-0-8"
       width="6.0743036"
       height="1.4944181"
       x="179.11896"
       y="163.26581" />
  </g>
</svg>
