<?xml version="1.0" encoding="UTF-8" standalone="no"?>
<svg id="logship-logo-dynamic" width="188.88" height="37.189" version="1.1" viewBox="0 0 49.974 9.8396" xmlns="http://www.w3.org/2000/svg">
                <g id="ship" transform="translate(-140.9 -159.79)">
                <path id="path750" d="m146.33 166.77h43.31l-1.9299 1.8899 0.45411 0.82015-45.24 0.0713v-2.0682l2.9517 0.0713z" fill="#b3b3b3" stroke-width="0"/>
                <path id="path1468" d="m146.72 166.55h8.5252v-5.2222l0.93912-0.55594h-4.2606v0.83976h-1.6608v2.7246l-0.54417 0.14951v-2.0795h-0.67371v-2.6111h-1.7715v2.7814l-0.64748 0.17789z" fill="#b3b3b3" stroke-width="0"/>
                <rect id="rect1" x="153.43" y="161.51" width="1.819" height=".48506" fill="#666" fill-opacity=".75" stroke-width=".17431"/>
                </g>
                <g id="container-grid" transform="translate(-140.9 -159.79)" fill="#999" stroke-width="0">
                <rect id="rect-0-0" x="155.53" y="165.69" width="3.5396" height=".87083"/>
                <rect id="rect-0-1" x="155.53" y="164.72" width="3.5396" height=".87083"/>
                <rect id="rect-0-2" x="155.54" y="163.71" width="3.5396" height=".87083"/>
                <rect id="rect-0-3" x="155.54" y="162.74" width="3.5396" height=".87083"/>
                <rect id="rect-1-0" x="159.24" y="165.69" width="3.5396" height=".87083"/>
                <rect id="rect-1-1" x="159.23" y="164.72" width="3.5396" height=".87083"/>
                <rect id="rect-1-2" x="159.24" y="163.71" width="3.5396" height=".87083"/>
                <rect id="rect-1-3" x="159.24" y="162.74" width="3.5396" height=".87083"/>
                <rect id="rect-2-0" x="162.94" y="165.69" width="3.5396" height=".87083"/>
                <rect id="rect-2-1" x="162.94" y="164.72" width="3.5396" height=".87083"/>
                <rect id="rect-2-2" x="162.95" y="163.71" width="3.5396" height=".87083"/>
                <rect id="rect-2-3" x="162.94" y="162.74" width="3.5396" height=".87083"/>
                <rect id="rect-3-0" x="166.63" y="165.69" width="3.5396" height=".87083"/>
                <rect id="rect-3-1" x="166.63" y="164.72" width="3.5396" height=".87083"/>
                <rect id="rect-3-2" x="166.64" y="163.71" width="3.5396" height=".87083"/>
                <rect id="rect-3-3" x="166.64" y="162.74" width="3.5396" height=".87083"/>
                <rect id="rect-4-0" x="170.33" y="165.69" width="3.5396" height=".87083"/>
                <rect id="rect-4-1" x="170.33" y="164.72" width="3.5396" height=".87083"/>
                <rect id="rect-4-2" x="170.34" y="163.71" width="3.5396" height=".87083"/>
                <rect id="rect-4-3" x="170.34" y="162.74" width="3.5396" height=".87083"/>
                <rect id="rect-5-0" x="173.99" y="165.71" width="3.5396" height=".87083"/>
                <rect id="rect-5-1" x="173.99" y="164.74" width="3.5396" height=".87083"/>
                <rect id="rect-5-2" x="174" y="163.73" width="3.5396" height=".87083"/>
                <rect id="rect-5-3" x="174" y="162.76" width="3.5396" height=".87083"/>
                <rect id="rect-6-0" x="177.69" y="165.71" width="3.5396" height=".87083"/>
                <rect id="rect-6-1" x="177.69" y="164.74" width="3.5396" height=".87083"/>
                <rect id="rect-6-2" x="177.7" y="163.73" width="3.5396" height=".87083"/>
                <rect id="rect-6-3" x="177.7" y="162.76" width="3.5396" height=".87083"/>
                <rect id="rect-7-0" x="181.39" y="165.71" width="3.5396" height=".87083"/>
                <rect id="rect-7-1" x="181.39" y="164.74" width="3.5396" height=".87083"/>
                <rect id="rect-7-2" x="181.4" y="163.73" width="3.5396" height=".87083"/>
                <rect id="rect-7-3" x="181.4" y="162.76" width="3.5396" height=".87083"/>
                <rect id="rect-8-0" x="185.09" y="165.71" width="3.5396" height=".87083"/>
                <rect id="rect-8-1" x="185.08" y="164.74" width="3.5396" height=".87083"/>
                <rect id="rect-8-2" x="185.09" y="163.73" width="3.5396" height=".87083"/>
                <rect id="rect-8-3" x="185.09" y="162.76" width="3.5396" height=".87083"/>
                </g>
                <g id="water" transform="translate(-140.9 -159.79)">
                <g id="g2550" transform="matrix(.95757 0 0 1.0206 5.8965 -3.2329)" fill="#1e6fe8" stroke-width="0">
                <path id="path-7" d="m141 169.38h6.5349v-0.20793l-1.6374-0.60894-1.6374 0.60894-1.6374-0.60894-1.6374 0.60894z"/>
                <path id="path-6" d="m147.53 169.38h6.5349v-0.20793l-1.6374-0.60894-1.6374 0.60894-1.6374-0.60894-1.6374 0.60894z"/>
                <path id="path-5" d="m154.03 169.37h6.5349v-0.20793l-1.6374-0.60894-1.6374 0.60894-1.6374-0.60894-1.6374 0.60894z"/>
                <path id="path-4" d="m160.56 169.37h6.5349v-0.20793l-1.6374-0.60894-1.6374 0.60894-1.6374-0.60894-1.6374 0.60894z"/>
                <path id="path-3" d="m167.08 169.37h6.5349v-0.20793l-1.6374-0.60894-1.6374 0.60894-1.6374-0.60894-1.6374 0.60894z"/>
                <path id="path-2" d="m173.61 169.37h6.5349v-0.20793l-1.6374-0.60894-1.6374 0.60894-1.6374-0.60894-1.6374 0.60894z"/>
                <path id="path-1" d="m180.11 169.36h6.5349v-0.20793l-1.6374-0.60894-1.6374 0.60894-1.6374-0.60894-1.6374 0.60894z"/>
                <path id="path-0" d="m186.64 169.36h6.5349v-0.20793l-1.6374-0.60894-1.6374 0.60894-1.6374-0.60894-1.6374 0.60894z"/>
                </g>
                </g>
                </svg>