<?xml version="1.0" encoding="UTF-8"?>
<svg width="189.55" height="44.493" version="1.1" viewBox="0 0 189.55 44.493" xmlns="http://www.w3.org/2000/svg">
 <g transform="translate(-75.301 -76.633)">
  <g transform="translate(-30.15 -3.6669)">
   <path d="m116.41 122.17 1.0928-1.2059 0.95 0.9164c0.5225 0.50401 1.31 0.91639 1.75 0.91639h0.8v-11h9.4249l4.0751-4.8766 80.25-0.31171c44.138-0.17143 80.25-0.20794 80.25-0.0811-2e-5 0.12682-1.575 2.6927-3.5 5.702l-3.5 5.4714v4.2141l2-1.2361v1.059c0 1.4627 6.486 1.3527-88.593 1.5025l-86.093 0.13561zm19.869-27.123c0.31657-5.9125 0.88213-11.537 1.2568-12.5 0.7889-2.0266 3.0681-2.3261 3.805-0.5l0.50439 1.25 0.0789-1.25 0.079-1.25h1.393c1.6834 0 2.607 2.1546 2.607 6.0818v2.9182h1.8904l0.74908 9.5 0.3605-11.5h5.104l1.0458-3c1.0749-3.0834 2.2529-3.7754 3.3647-1.9765l0.63254 1.0235 11.768-0.46476 1.5814 1.5813-3.4969 2.557v18.28h-33.3zm33.724 6.25v-4.5l20.5-0.36676-16-1.2665 15.333-0.36676 0.75976-2.2793 15.407-0.13693 0.116-3.0419 0.116-3.0419 0.42294 2c0.23261 1.1 0.63898 3.0125 0.90305 4.25l0.48011 2.25h4.8523l0.74908-9.5 0.3605 9.5h31.89l0.74908-9.5 0.3605 9.5 2.5 0.03062-3 1.9388 12.25 0.01531 22.564 0.01532v9h-111.31zm42.269-5.1559c-0.67703-0.27392-2.027-0.2906-3-0.03705l-1.769 0.46099 6 0.0741zm25.981-0.088054c-4.5375-0.18529-11.962-0.18529-16.5 0l-8.25 0.3369h33z" fill="#bfbfbf"/>
   <path d="m116.73 122.68c0.67834-0.68342 1.4852-0.99067 1.7931-0.68278s-0.24711 0.86705-1.2333 1.2426l-1.7931 0.68278zm4.2667-5.0842v-5.7917h9.7561l2.8653-4.3153 160.38-0.96319-4e-3 0.88926c-3e-3 0.4891-1.3507 2.9143-2.996 5.3893l-2.9914 4.5-4e-3 2.309-4e-3 2.309 2.5-1.502-2.5053 3.0953-45.495-0.2304-2.3618-1.5136-1.0366 1.6773-39.602-0.14466-2.3618-1.5326-1.0999 1.7797-4.2691-0.13398c-2.348-0.0737-4.8005-0.47413-5.45-0.88986l-1.1809-0.75588-1.0849 1.7554-33.887-0.2228-0.7411-0.74132-0.74109-0.74133-2.8464 2.3623-1.7905-1.1182-1.7905-1.1182-2.3066 2.3066-3.8574-2.409-1.0818 1.7504-14.011-0.20797zm15-19.233v-7.441l2.162-1.3362-0.62142-2.4759c-0.34178-1.3618-0.34792-3.3377-0.0136-4.3909l0.60775-1.915h1.3493c0.74211 0 1.5763 0.5625 1.8537 1.25l0.50439 1.25 0.0789-1.25 0.079-1.25h3v8.9006l2.8511 1.5994 0.40635 4 0.40634 4 0.16811-5.75 0.1681-5.75h5.75l1.2-6h1.025c0.56375 0 1.025 0.46366 1.025 1.0304v1.0303l12.033-0.36106 1.467 1.5742-2.5 0.89286v19.833h-33zm34 2.941v-4.5h20v-4l3.25-0.14246c3.3175-0.14542 5.7455-0.13661 11.5 0.04174l3.25 0.10072v4h73.314v9h-111.31z" fill="#a3a3a3"/>
   <path d="m121.68 123.15c-0.37583-0.37583-0.68333-3.0833-0.68333-6.0167v-5.3333h9.7561l1.4269-2.1491 1.427-2.1491 80.195-0.49251c44.107-0.27088 80.195-0.23604 80.195 0.07743s-1.6148 3.2807-3.5885 6.5939l-3.5885 6.024 1.3152 2.128 1.1809-0.65717c0.64949-0.36145 0.38613 0.18491-0.58527 1.2141l-1.7662 1.8713-3.711-2.3176-2.3066 2.3066-3.8574-2.409-0.51709 0.83666-0.51708 0.83667h-16.117l-0.51708-0.83667-0.51709-0.83666-3.8574 2.409-2.3066-2.3066-3.6934 2.3066-2.3066-2.3066-3.6934 2.3066-2.3066-2.3066-3.6934 2.3066-2.3066-2.3066-1.7905 1.1182-1.7905 1.1182-2.8464-2.3623-0.73899 0.739c-0.40645 0.40644-4.3043 0.80667-8.662 0.88939l-7.923 0.15041-0.54239-0.8776-0.54238-0.87759-3.8574 2.409-2.3066-2.3066-3.6934 2.3066-2.3066-2.3066-3.6934 2.3066-2.3066-2.3066-1.7905 1.1182-1.7905 1.1182-2.81-2.3321-2.4023 2.4023-3.6934-2.3066-2.3066 2.3066-3.8574-2.409-1.1109 1.7974-4.9161-0.17768c-2.7038-0.0977-5.2233-0.48487-5.5987-0.86034l-0.68267-0.68267-3.7345 2.3322-2.3066-2.3066-3.6934 2.3066-2.3066-2.3066-3.6934 2.3066-2.3066-2.3066-1.7905 1.1182-1.7905 1.1182-2.81-2.3321-2.4023 2.4023-3.6934-2.3066-2.3066 2.3066-3.6934-2.3066-1.89 1.89zm14.317-24.791v-7.441l2.162-1.3362-0.62142-2.4759c-0.34178-1.3618-0.34792-3.3377-0.0136-4.3909l0.60775-1.915h1.3493c0.74211 0 1.5763 0.5625 1.8537 1.25l0.50439 1.25 0.0789-1.25 0.079-1.25h3v8.9006l2.8511 1.5994 0.40635 4 0.40634 4 0.16811-5.75 0.1681-5.75h6v-1.8776c0-1.0327 0.675-2.4378 1.5-3.1224l1.5-1.2449v2.3056l12.033-0.36106 1.467 1.5742-2.5 0.89285v19.833h-33zm34 2.941v-4.5h20v-4h18v3.75h73.314v9.25h-111.31z" fill="#8c8c8c"/>
   <path d="m105.45 124.37 1.5873-0.5475 3.5177-0.42581c0.53709 0.1058 2.0497-2.1417 2.8374-1.3089l1.5515 1.3835 1.7678-2.2438 0.7513 2.1423 3.0762-1.4424h4.8439l4.1888-1.0237 82.489-0.0654c45.369-0.036 76.507 0.72473 78.079 1.5543 0.94443 0.49839-0.70415 0.39139-1.3473 0.99456l-0.5625 0.70673-1.25 0.17792-3.2254 0.35748c-29.339 1.1956-55.464-0.3089-85.409-0.29957l-88.495 0.0285z" fill="#308fbf" stroke-width=".46453"/>
   <path d="m125.56 122.89-0.56001-0.90612-3.998 1.0455v-11.233h9.8866l2.6517-3.7858 80.231-0.35711c44.127-0.19642 80.231-0.29914 80.231-0.22827-2e-5 0.0709-1.5658 2.7291-3.4796 5.9073l-3.4796 5.7784 0.58799 2.3427 0.58799 2.3427h-1.5494c-0.85217 0-1.8218-0.44078-2.1548-0.97952l-0.60538-0.97952-3.8574 2.409-2.3066-2.3066-3.6934 2.3066-2.3563-2.3563-3.6936 1.9768-3.6936-1.9768-2.3563 2.3563-3.6934-2.3066-2.3066 2.3066-3.6934-2.3066-2.3066 2.3066-3.6934-2.3066-2.3066 2.3066-3.6934-2.3066-2.3066 2.3066-3.6934-2.3066-2.3066 2.3066-3.6934-2.3066-2.3066 2.3066-3.5807-2.2362-3.3429 1.8708-3.7201-1.9909-2.0917 2.0917-3.9083-2.0917-2.3563 2.3563-3.6934-2.3066-2.3066 2.3066-3.6934-2.3066-2.3066 2.3066-3.6934-2.3066-2.3066 2.3066-3.6934-2.3066-1.1533 1.1533-1.1533 1.122-1.8467-1.122-1.8467-1.1533-1.1533 1.1533-1.1533 1.0908-1.7903-1.0556-1.7903-1.1181-3.3429 1.8708-3.7201-1.9909-2.0917 2.0917-3.9083-2.0917-2.3563 2.3563-3.6934-2.3066-2.3066 2.3066-3.6934-2.3066-2.3066 2.3066-3.6934-2.3066-2.3066 2.3066-3.6934-2.3066-2.3066 2.3066-3.629-2.2664-1.4105 0.89291c-1.8052 1.1428-2.6543 1.1472-3.3525 0.0174zm10.442-24.594v-7.5h2v-10h0.91667c0.50416 0 1.1449 0.5625 1.4239 1.25l0.5072 1.25 2.1523-3 0.98469 1.5c0.54158 0.825 0.99158 3.1875 1 5.25l0.0153 3.75h2.885l0.38279 4.25 0.3828 4.25 0.1747-5.75 0.17471-5.75h5.8609l0.6391-4.4968 7.5 0.3437c8.1665 0.37424 9.399 0.79066 6.7417 2.2778l-1.7417 0.97468v18.901h-32zm34 3v-4.5h20v-2.853l17.323-0.64695 0.45527 1.75 0.45528 1.75h72.581v9h-110.81z" fill="#767676"/>
   <path d="m125.48 122.97-0.63442-1.0265-3.3492 0.55304-0.60452-10.5h10.97l1.2046-3.7954 80.215-0.39556c44.118-0.21755 80.319-0.3476 80.445-0.28898 0.12649 0.0586-1.3808 2.6817-3.3494 5.829l-3.5794 5.7224 0.61849 2.4643 0.61848 2.4642h-1.46c-0.80302 0-1.7389-0.45122-2.0797-1.0027l-0.61971-1.0027-4.0065 2.1442-2.8722-2.3837-3 2.4898-3-2.4898-3 2.4898-3-2.4898-2.8722 2.3837-3.8214-2.0452-2.0917 2.0917-3.9083-2.0917-2.0917 2.0917-3.9083-2.0917-2.3563 2.3563-3.6934-2.3066-2.3066 2.3066-3.5807-2.2362-3.4741 1.9442-1.4476-1.2014-1.4476-1.2014-3 2.4898-3-2.4898-3 2.4898-3-2.4898-3 2.4898-3-2.4898-2.8722 2.3837-3.8214-2.0452-2.0917 2.0917-3.9083-2.0917-2.0917 2.0917-3.9083-2.0917-1.1782 1.1782-1.1782 0.99066-1.7903-0.93058-1.7903-1.1181-3.5622 1.9935-2.1136-2.1136-3.8214 2.0452-2.8722-2.3837-3 2.4898-3-2.4898-3 2.4898-3-2.4898-2.8722 2.3837-3.8214-2.0452-2.0917 2.0917-3.9083-2.0917-2.0917 2.0917-3.7664-2.0157-1.8206 1.0188-1.8206 1.0188-2.1136-2.1136-3.8214 2.0452-1.2196-1.0122-1.2196-1.0122-1.4665 0.92749c-1.9051 1.2049-2.7056 1.1892-3.4828-0.0684zm10.516-24.473v-7.5h2v-10h0.91667c0.50416 0 1.1449 0.5625 1.4239 1.25l0.5072 1.25 2.1523-3 0.98469 1.5c0.54158 0.825 0.99158 3.1875 1 5.25l0.01531 3.75h2.885l0.38279 4.25 0.3828 4.25 0.1747-5.75 0.17471-5.75h6v-1.9167c0-2.4896 0.62459-2.6463 8.9778-2.2513l7.0222 0.33206v0.91794c0 0.50487-0.675 0.91794-1.5 0.91794h-1.5v20h-32zm34 3v-4.5h20v-3h18v3h72.814v9h-110.81z" fill="#606060"/>
  </g>
  <g transform="translate(-.74999 -.75)" fill="#a6a6a6">
   <rect x="159.91" y="90.583" width="18" height="3.84" stroke-width="1.0084"/>
   <rect x="159.91" y="94.663" width="18" height="4.15" stroke-width="1.0483"/>
   <rect x="159.91" y="99.143" width="18" height="3.74" stroke-width=".99521"/>
   <rect x="141.66" y="94.663" width="18" height="4.15" stroke-width="1.0483"/>
   <rect x="141.66" y="99.143" width="18" height="3.74" stroke-width=".99521"/>
   <rect x="196.41" y="94.663" width="18" height="4.15" stroke-width="1.0483"/>
   <rect x="196.41" y="99.143" width="18" height="3.74" stroke-width=".99521"/>
   <rect x="214.66" y="94.663" width="18" height="4.15" stroke-width="1.0483"/>
   <rect x="214.66" y="99.143" width="18" height="3.74" stroke-width=".99521"/>
   <rect x="233.06" y="94.663" width="18" height="4.15" stroke-width="1.0483"/>
   <rect x="233.06" y="99.143" width="18" height="3.74" stroke-width=".99521"/>
   <rect x="178.16" y="94.663" width="18" height="4.15" stroke-width="1.0483"/>
   <rect x="178.16" y="99.143" width="18" height="3.74" stroke-width=".99521"/>
  </g>
  <g transform="translate(-1.25 -.5)" stroke-width="1.0084">
   <rect x="160.16" y="90.683" width="18" height="3.84" fill="#4d4d4d"/>
   <rect x="160.16" y="94.763" width="18" height="3.84" fill="#262626"/>
   <rect x="160.16" y="98.843" width="18" height="3.84" fill="#404040"/>
   <rect x="141.91" y="94.763" width="18" height="3.84" fill="#308fbf"/>
   <rect x="141.91" y="98.843" width="18" height="3.84" fill="#262626"/>
   <rect x="196.66" y="94.763" width="18" height="3.84" fill="#308fbf"/>
   <rect x="196.66" y="98.843" width="18" height="3.84" fill="#595959"/>
   <rect x="214.91" y="94.763" width="18" height="3.84" fill="#262626"/>
   <rect x="214.91" y="98.843" width="18" height="3.84" fill="#308fbf"/>
   <rect x="233.16" y="94.763" width="18" height="3.84" fill="#4d4d4d"/>
   <rect x="233.16" y="98.843" width="18" height="3.84" fill="#262626"/>
   <rect x="178.41" y="94.763" width="18" height="3.84" fill="#8c8c8c"/>
   <rect x="178.41" y="98.843" width="18" height="3.84" fill="#308fbf"/>
  </g>
  <g transform="translate(85.164 76.833)">
   <path d="m167.62 25.125 2.2513-22.375v23" fill="#4d4d4d" stroke-width=".92609"/>
   <path d="M 168.08211,25.375 170,3 v 23" fill="#737373" stroke-width=".85477"/>
   <path d="m169.28 25 0.59467-22.375v23" fill="#bfbfbf" stroke-width=".47596"/>
   <rect x="46.492" y="8.7504" width="7.2478" height="2.6517" fill="#a6a6a6"/>
  </g>
 </g>
</svg>
