<?xml version="1.0" encoding="UTF-8" standalone="no"?>
<svg
   width="256"
   height="256"
   overflow="hidden"
   version="1.1"
   id="svg913"
   sodipodi:docname="SearchChart.svg"
   inkscape:version="1.2.2 (732a01da63, 2022-12-09)"
   inkscape:export-filename="SearchChart.svg"
   inkscape:export-xdpi="96"
   inkscape:export-ydpi="96"
   xmlns:inkscape="http://www.inkscape.org/namespaces/inkscape"
   xmlns:sodipodi="http://sodipodi.sourceforge.net/DTD/sodipodi-0.dtd"
   xmlns="http://www.w3.org/2000/svg"
   xmlns:svg="http://www.w3.org/2000/svg">
  <sodipodi:namedview
     id="namedview915"
     pagecolor="#ffffff"
     bordercolor="#000000"
     borderopacity="0.25"
     inkscape:showpageshadow="2"
     inkscape:pageopacity="0.0"
     inkscape:pagecheckerboard="0"
     inkscape:deskcolor="#d1d1d1"
     showgrid="false"
     inkscape:zoom="3.7083822"
     inkscape:cx="160.98664"
     inkscape:cy="126.47024"
     inkscape:window-width="1920"
     inkscape:window-height="1129"
     inkscape:window-x="-8"
     inkscape:window-y="-8"
     inkscape:window-maximized="1"
     inkscape:current-layer="svg913" />
  <defs
     id="defs815">
    <marker
       style="overflow:visible"
       id="marker2874"
       refX="0"
       refY="0"
       orient="auto-start-reverse"
       inkscape:stockid="TriangleStart"
       markerWidth="5.3244081"
       markerHeight="6.155385"
       viewBox="0 0 5.3244081 6.1553851"
       inkscape:isstock="true"
       inkscape:collect="always"
       preserveAspectRatio="xMidYMid">
      <path
         transform="scale(0.5)"
         style="fill:context-stroke;fill-rule:evenodd;stroke:context-stroke;stroke-width:1pt"
         d="M 5.77,0 -2.88,5 V -5 Z"
         id="path2872" />
    </marker>
    <marker
       style="overflow:visible"
       id="marker2814"
       refX="0"
       refY="0"
       orient="auto-start-reverse"
       inkscape:stockid="TriangleStart"
       markerWidth="5.3244081"
       markerHeight="6.155385"
       viewBox="0 0 5.3244081 6.1553851"
       inkscape:isstock="true"
       inkscape:collect="always"
       preserveAspectRatio="xMidYMid">
      <path
         transform="scale(0.5)"
         style="fill:context-stroke;fill-rule:evenodd;stroke:context-stroke;stroke-width:1pt"
         d="M 5.77,0 -2.88,5 V -5 Z"
         id="path2812" />
    </marker>
    <marker
       style="overflow:visible"
       id="TriangleStart"
       refX="0"
       refY="0"
       orient="auto-start-reverse"
       inkscape:stockid="TriangleStart"
       markerWidth="5.3244081"
       markerHeight="6.155385"
       viewBox="0 0 5.3244081 6.1553851"
       inkscape:isstock="true"
       inkscape:collect="always"
       preserveAspectRatio="xMidYMid">
      <path
         transform="scale(0.5)"
         style="fill:context-stroke;fill-rule:evenodd;stroke:context-stroke;stroke-width:1pt"
         d="M 5.77,0 -2.88,5 V -5 Z"
         id="path135" />
    </marker>
    <clipPath
       id="clip0">
      <rect
         x="0"
         y="0"
         width="1280"
         height="720"
         id="rect776" />
    </clipPath>
    <clipPath
       id="clip1">
      <rect
         x="709"
         y="474"
         width="96"
         height="96"
         id="rect779" />
    </clipPath>
    <clipPath
       id="clip2">
      <rect
         x="709"
         y="474"
         width="96"
         height="96"
         id="rect782" />
    </clipPath>
    <clipPath
       id="clip3">
      <rect
         x="709"
         y="474"
         width="96"
         height="96"
         id="rect785" />
    </clipPath>
    <clipPath
       id="clip4">
      <rect
         x="575"
         y="474"
         width="96"
         height="96"
         id="rect788" />
    </clipPath>
    <clipPath
       id="clip5">
      <rect
         x="575"
         y="474"
         width="96"
         height="96"
         id="rect791" />
    </clipPath>
    <clipPath
       id="clip6">
      <rect
         x="575"
         y="474"
         width="96"
         height="96"
         id="rect794" />
    </clipPath>
    <clipPath
       id="clip7">
      <rect
         x="440"
         y="474"
         width="96"
         height="96"
         id="rect797" />
    </clipPath>
    <clipPath
       id="clip8">
      <rect
         x="440"
         y="474"
         width="96"
         height="96"
         id="rect800" />
    </clipPath>
    <clipPath
       id="clip9">
      <rect
         x="440"
         y="474"
         width="96"
         height="96"
         id="rect803" />
    </clipPath>
    <clipPath
       id="clip10">
      <rect
         x="559"
         y="237"
         width="162"
         height="161"
         id="rect806" />
    </clipPath>
    <clipPath
       id="clip11">
      <rect
         x="559"
         y="237"
         width="162"
         height="161"
         id="rect809" />
    </clipPath>
    <clipPath
       id="clip12">
      <rect
         x="559"
         y="237"
         width="162"
         height="161"
         id="rect812" />
    </clipPath>
  </defs>
  <path
     style="fill:#000000;stroke-width:0.13483"
     d="M 24.876076,240.87323 V 239.3901 H 14.696435 4.5167944 v -0.74156 -0.74156 H 14.696435 24.876076 v -1.48313 -1.48313 h 2.561764 2.561764 v -3.43488 -3.43488 l -10.224017,-0.037 -10.2240166,-0.037 -0.6575176,-0.40657 C 8.4120741,227.2924 8.1342102,226.98798 7.8532544,226.45017 l -0.383281,-0.73369 0.040245,-4.54556 0.040244,-4.54557 0.4381965,-0.62141 c 0.2410081,-0.34177 0.4381965,-0.64819 0.4381965,-0.68094 0,-0.0327 -0.1971884,-0.33915 -0.4381965,-0.68092 l -0.4381965,-0.62139 -0.042782,-4.40496 c -0.04583,-4.71887 -0.0063,-5.0968 0.6096985,-5.82887 0.2936789,-0.34902 0.3286313,-0.46442 0.1958175,-0.64652 -0.088919,-0.12192 -0.3114863,-0.52503 -0.4945932,-0.89582 -0.3325186,-0.67333 -0.3329233,-0.67927 -0.3342389,-4.90564 -8.666e-4,-2.78437 0.051315,-4.40716 0.1525815,-4.74516 0.2111395,-0.70472 0.8107912,-1.39343 1.5064634,-1.7302 l 0.582051,-0.28176 20.9571538,0.003 c 20.111166,0.003 20.978925,0.013 21.496473,0.25266 0.296626,0.13733 0.702952,0.42419 0.902948,0.63748 0.755896,0.8061 0.782423,1.0021 0.782423,5.78097 0,4.67637 -0.03746,4.98512 -0.689071,5.67873 l -0.271712,0.28922 0.446684,0.63349 0.446684,0.63348 0.03854,4.67457 0.03854,4.67456 -0.445496,0.74156 -0.445495,0.74156 0.440667,0.7356 0.440666,0.7356 v 4.5139 c 0,4.30298 -0.01316,4.54109 -0.281765,5.09595 -0.33677,0.69567 -1.025481,1.29532 -1.730201,1.50646 -0.36484,0.10931 -3.409723,0.1539 -10.50913,0.1539 h -9.995461 v 3.43816 3.43815 h 2.561764 2.561764 v 1.48313 1.48313 H 46.65107 56.830711 v 0.74156 0.74156 H 46.65107 36.471429 v 1.48313 1.48312 h -5.797676 -5.797677 z m 10.247056,-2.22469 v -2.35952 h -4.449379 -4.44938 v 2.35952 2.35952 h 4.44938 4.449379 z m 16.51048,-12.12341 c 0.91944,-0.38417 0.945019,-0.50587 0.992802,-4.724 0.04997,-4.41074 0.0097,-4.82835 -0.515919,-5.354 l -0.382568,-0.38256 -21.010096,0.003 c -19.703132,0.003 -21.0279836,0.0175 -21.2976802,0.23595 -0.5653113,0.45793 -0.5888066,0.65813 -0.5888066,5.01725 0,4.6511 0.031146,4.84125 0.851411,5.19801 0.6500778,0.28273 41.2746508,0.28889 41.9508568,0.006 z m 0.476883,-12.32626 c 0.525643,-0.52564 0.565885,-0.94325 0.515919,-5.35399 -0.04778,-4.21813 -0.07336,-4.33984 -0.992802,-4.724 -0.686558,-0.28686 -41.234642,-0.28625 -41.9212503,6.4e-4 -0.8530769,0.35644 -0.8810175,0.52237 -0.8810175,5.23228 0,4.48915 0.0058,4.53302 0.667961,5.05482 0.1617667,0.12747 4.9123198,0.1652 21.2185258,0.16853 l 21.010096,0.004 z m -0.344132,-11.77288 c 0.783886,-0.35716 0.813271,-0.51522 0.860937,-4.63085 0.05216,-4.50406 0.01832,-4.81879 -0.582916,-5.42002 l -0.44758,-0.44758 -20.989312,0.035 -20.9893098,0.035 -0.393419,0.44032 -0.393419,0.44033 v 4.39332 4.39332 l 0.4584209,0.45842 0.458421,0.45842 H 30.586511 c 15.460263,0 20.926468,-0.0402 21.179852,-0.15561 z"
     id="path708" />
  <path
     style="fill:#000000;stroke-width:0.13483"
     d="m 123.16692,240.87323 v -1.48313 h -10.17965 -10.17964 v -0.74156 -0.74156 h 10.17964 10.17965 v -1.48313 -1.48313 h 2.56176 2.56176 v -3.43815 -3.43816 h -9.99546 c -7.51825,0 -10.133,-0.0411 -10.55042,-0.16582 -0.70432,-0.21045 -1.63449,-1.12814 -1.83474,-1.81013 -0.10372,-0.35325 -0.13888,-1.96338 -0.11036,-5.05403 l 0.0418,-4.53563 0.42353,-0.58952 0.42354,-0.58952 -0.42354,-0.58467 -0.42353,-0.58468 v -4.8296 -4.8296 l 0.44668,-0.63371 c 0.44495,-0.63125 0.44567,-0.63484 0.18431,-0.9211 -0.68737,-0.75289 -0.6984,-0.84265 -0.6984,-5.67925 0,-4.21696 0.018,-4.56419 0.26171,-5.04187 0.33973,-0.66592 1.08507,-1.31354 1.72479,-1.49865 0.35946,-0.10401 6.64014,-0.13534 21.49597,-0.1072 l 20.98813,0.0397 0.58462,0.40532 c 0.38291,0.26548 0.71256,0.65762 0.95541,1.13653 l 0.37078,0.7312 -0.001,4.32408 -0.001,4.32408 -0.33292,0.67414 c -0.18311,0.37079 -0.40568,0.7739 -0.49459,0.89582 -0.13279,0.18206 -0.0981,0.29723 0.19422,0.64463 0.19575,0.23263 0.41857,0.6486 0.49516,0.92438 0.1972,0.71005 0.18631,8.61718 -0.0127,9.21153 -0.0844,0.25207 -0.29675,0.65146 -0.4719,0.88752 -0.17515,0.23606 -0.31845,0.46763 -0.31845,0.5146 0,0.047 0.1433,0.27855 0.31845,0.51461 0.17515,0.23606 0.38751,0.63544 0.4719,0.88752 0.193,0.57644 0.2118,8.50844 0.0217,9.17116 -0.20189,0.70397 -0.75547,1.41185 -1.38696,1.77355 l -0.57111,0.32715 -10.21335,0.037 -10.21335,0.037 v 3.43488 3.43488 h 2.49435 2.49435 v 1.48313 1.48313 h 10.24705 10.24706 v 0.74156 0.74156 h -10.24706 -10.24705 v 1.48313 1.48312 h -5.73026 -5.73026 z m 10.24705,-2.22469 v -2.35952 h -4.44938 -4.44938 v 2.35952 2.35952 h 4.44938 4.44938 z m 16.51201,-12.12405 c 0.85308,-0.35644 0.88102,-0.52238 0.88102,-5.23228 0,-4.48915 -0.006,-4.53302 -0.66796,-5.05482 -0.16176,-0.12747 -4.90621,-0.16521 -21.18997,-0.16854 -20.93613,-0.004 -20.9823,-0.004 -21.33216,0.27151 -0.19283,0.15168 -0.41303,0.50056 -0.48933,0.77527 -0.0801,0.28834 -0.13895,2.12384 -0.13927,4.34212 -6e-4,4.32347 0.0465,4.57443 0.94285,5.0222 0.44307,0.22134 1.72664,0.23576 21.00405,0.23595 17.44031,1.4e-4 20.60122,-0.0286 20.99077,-0.19141 z m 0.4226,-12.40147 0.45842,-0.45842 v -4.26732 c 0,-4.75775 -0.0269,-4.91889 -0.88102,-5.27576 -0.38964,-0.16281 -3.55672,-0.19133 -21.05818,-0.18964 -16.08054,0.002 -20.67066,0.0385 -20.92364,0.16854 -0.17824,0.0916 -0.45127,0.33772 -0.60674,0.54693 -0.2687,0.3616 -0.28472,0.56789 -0.32455,4.17972 -0.0489,4.43753 -0.01,4.84715 0.51498,5.3718 l 0.38257,0.38257 h 20.98987 20.98987 z m -0.0493,-11.93485 0.44033,-0.39343 v -4.52479 -4.52479 l -0.37384,-0.37385 -0.37383,-0.37384 -20.86184,-0.0399 c -19.11764,-0.0366 -20.89714,-0.0214 -21.284,0.18113 -0.77558,0.40605 -0.79131,0.50777 -0.79131,5.11712 0,4.55293 0.0273,4.74298 0.73631,5.12873 0.28691,0.15609 3.71979,0.18712 21.20509,0.19164 l 20.86277,0.005 z"
     id="path710" />
  <path
     style="fill:#000000;stroke-width:0.13483"
     d="m 220.64878,240.87323 v -1.48313 h -10.17965 -10.17964 v -0.74156 -0.74156 h 10.17964 10.17965 v -1.48313 -1.48313 h 2.56176 2.56176 v -3.43815 -3.43816 l -10.07852,-0.001 -10.07851,-0.001 -0.68993,-0.32125 c -0.73194,-0.3408 -1.26412,-0.93225 -1.51614,-1.68497 -0.10228,-0.30548 -0.15247,-1.90162 -0.15049,-4.78645 0.003,-3.89368 0.0276,-4.38228 0.24829,-4.86746 0.13493,-0.29663 0.34596,-0.62259 0.46894,-0.72437 0.29426,-0.24351 0.28235,-0.46156 -0.0412,-0.75437 -0.64051,-0.57965 -0.69249,-1.04418 -0.65068,-5.81427 l 0.0391,-4.46152 0.44421,-0.71427 0.4442,-0.71428 -0.26923,-0.28658 c -0.64883,-0.69065 -0.68659,-1.00281 -0.68659,-5.67609 0,-4.77887 0.0265,-4.97487 0.78242,-5.78097 0.2,-0.21329 0.60632,-0.50015 0.90295,-0.63748 0.51764,-0.23966 1.38209,-0.2497 21.50533,-0.2497 20.10704,0 20.9885,0.0102 21.51487,0.24928 0.66718,0.30303 1.36402,1.11477 1.55114,1.80691 0.0855,0.31628 0.12284,2.20378 0.0978,4.94427 l -0.0405,4.4327 -0.43393,0.61535 -0.43394,0.61535 0.43394,0.69776 0.43393,0.69775 0.0391,4.46159 c 0.0418,4.77008 -0.0102,5.23461 -0.65069,5.81426 -0.14564,0.13181 -0.26481,0.31186 -0.26481,0.4001 0,0.0882 0.11917,0.2683 0.26481,0.40011 0.64048,0.57962 0.6925,1.04428 0.65069,5.81293 l -0.0391,4.46026 -0.40657,0.65731 c -0.29587,0.47834 -0.60293,0.75989 -1.12774,1.03405 l -0.72117,0.37675 H 237.21743 227.1206 v 3.43816 3.43815 h 2.56176 2.56177 v 1.48313 1.48313 h 10.17964 10.17964 v 0.74156 0.74156 h -10.17964 -10.17964 v 1.48313 1.48312 h -5.79768 -5.79767 z m 10.24705,-2.22469 v -2.35952 h -4.44938 -4.44938 v 2.35952 2.35952 h 4.44938 4.44938 z m 16.50335,-12.12043 c 0.89412,-0.37359 0.88968,-0.34808 0.88968,-5.10705 0,-4.56122 -0.0411,-4.88287 -0.66668,-5.21767 -0.17472,-0.0935 -7.10953,-0.13882 -21.24465,-0.13882 h -20.98525 l -0.39412,0.39411 -0.39412,0.39412 v 4.42975 c 0,4.89001 -0.004,4.86365 0.85999,5.23982 0.63622,0.2769 41.27285,0.28246 41.93515,0.006 z m 0.30087,-12.18562 c 0.56638,-0.45878 0.58881,-0.65364 0.58881,-5.11537 0,-4.76138 0.004,-4.73561 -0.88968,-5.10922 -0.67262,-0.28104 -41.23283,-0.28104 -41.90545,0 -0.89671,0.37467 -0.88969,0.33324 -0.88969,5.24555 v 4.42976 l 0.39412,0.39411 0.39412,0.39412 21.01009,-0.003 c 19.70314,-0.003 21.02799,-0.0175 21.29768,-0.23596 z m 0.13039,-12.21931 0.45842,-0.45842 v -4.39332 -4.39332 l -0.39343,-0.44033 -0.39343,-0.44032 H 226.44645 205.3909 l -0.39343,0.44032 -0.39343,0.44033 v 4.39332 4.39332 l 0.45842,0.45842 0.45843,0.45842 h 20.92556 20.92557 z"
     id="path714" />
  <path
     style="fill:#000000;stroke-width:0.13483"
     d="m 178.37967,111.78998 c -0.94685,-0.25464 -1.38871,-0.4449 -2.11955,-0.91267 -0.71927,-0.46036 -18.46788,-18.655421 -19.11462,-19.595425 -0.99372,-1.444325 -1.41443,-3.532592 -1.08861,-5.40356 0.20235,-1.16197 0.77726,-2.659644 1.34242,-3.497048 0.2377,-0.352211 0.41402,-0.714985 0.3918,-0.806165 -0.0222,-0.09118 -1.17099,-1.332796 -2.55285,-2.75915 l -2.51247,-2.593369 -1.06052,0.969292 c -3.74956,3.427027 -8.71827,6.191566 -13.71086,7.628585 -8.35632,2.405201 -17.07398,1.623178 -24.96714,-2.239689 -4.43264,-2.169316 -8.8627,-5.719276 -11.95297,-9.578337 -3.429504,-4.282682 -6.03037,-9.659752 -7.2422,-14.972624 -2.266987,-9.938862 -0.366831,-20.411624 5.220918,-28.77523 1.648812,-2.467895 3.127522,-4.241053 5.191092,-6.224733 5.20851,-5.006868 11.3774,-8.08629 18.77366,-9.371544 1.51216,-0.262771 2.21579,-0.302308 5.38009,-0.302308 3.16429,0 3.86792,0.03954 5.38009,0.302308 6.2779,1.090916 11.52612,3.422744 16.3949,7.28439 1.57366,1.24814 4.3503,4.011153 5.57871,5.55133 4.31617,5.411607 7.04002,11.972687 7.92044,19.0784 0.24528,1.979614 0.20991,6.645748 -0.0664,8.763929 -0.91091,6.982166 -3.64404,13.395043 -8.00066,18.772337 -0.61462,0.758619 -1.11434,1.426026 -1.11048,1.483126 0.004,0.0571 1.14863,1.280212 2.54395,2.718024 l 2.53693,2.614206 0.59084,-0.405085 c 3.02995,-2.077356 6.62708,-2.185157 9.05871,-0.271477 0.56735,0.446506 17.8288,18.156207 18.4703,18.949953 0.99567,1.231959 1.51136,2.987974 1.40834,4.795574 -0.27209,4.77359 -4.16763,8.72661 -8.7962,8.92599 -0.75617,0.0326 -1.46753,-0.0161 -1.88762,-0.12903 z m 3.60343,-2.56661 c 1.72129,-0.60753 3.37215,-2.07936 4.09592,-3.65173 0.94093,-2.04417 0.93818,-4.09243 -0.008,-5.582407 -0.16928,-0.266709 -4.3304,-4.626366 -9.24693,-9.688126 -10.08792,-10.385906 -9.53101,-9.906052 -11.5925,-9.988543 -1.35542,-0.05424 -2.47165,0.25581 -3.60911,1.002481 -2.11772,1.390155 -3.30823,3.510941 -3.32465,5.922595 -0.0147,2.152048 -0.43532,1.629383 9.72968,12.088971 4.87769,5.019049 9.03897,9.258249 9.24728,9.420429 1.09811,0.85492 3.06989,1.05442 4.7078,0.47633 z M 132.40275,83.512416 c 12.71602,-1.568573 23.55871,-10.70015 27.54972,-23.202022 0.75728,-2.372217 1.20012,-4.603541 1.55356,-7.82794 l 0.0406,-0.370782 -6.21252,0.0019 -6.21252,0.0019 -3.43816,4.125308 c -1.89098,2.268919 -3.58285,4.239961 -3.7597,4.380092 -0.4512,0.357507 -0.91884,0.31715 -1.34414,-0.115998 -0.31993,-0.32583 -0.59849,-1.277995 -2.29766,-7.853829 -1.06348,-4.115676 -1.98284,-7.574058 -2.04302,-7.685292 -0.0852,-0.157483 -0.14383,-0.11272 -0.26488,0.202244 -0.0855,0.222469 -2.15466,5.711933 -4.59813,12.198809 -2.44346,6.486876 -4.53485,11.935017 -4.64752,12.106981 -0.4807,0.733637 -1.59592,0.621604 -1.91669,-0.192546 -0.083,-0.210774 -1.43474,-7.542678 -3.00377,-16.293125 -1.56903,-8.750446 -2.87592,-15.935183 -2.90419,-15.966082 -0.0283,-0.0309 -0.0751,-0.0309 -0.10413,0 -0.029,0.0309 -1.09571,3.271868 -2.37048,7.202153 -1.74661,5.385042 -2.39886,7.229036 -2.64687,7.483047 l -0.32911,0.337075 -9.06894,0.06741 -9.068944,0.06742 0.170583,1.550542 c 1.068546,9.712707 6.365761,18.605149 14.467731,24.286994 4.51924,3.169312 10.12576,5.163117 15.85508,5.638424 1.62555,0.134857 4.9227,0.06354 6.59406,-0.142631 z M 130.85221,52.21374 c 2.48423,-6.615947 4.62143,-12.134867 4.74931,-12.264267 0.54912,-0.555614 1.42166,-0.427981 1.76126,0.257635 0.10261,0.207144 1.14798,4.094258 2.32305,8.638029 1.17507,4.543772 2.17762,8.244846 2.22789,8.224611 0.0503,-0.02023 1.38097,-1.583963 2.9571,-3.474949 1.57613,-1.890986 2.98688,-3.544335 3.13499,-3.674109 0.24872,-0.217917 0.77986,-0.235952 6.94904,-0.235952 h 6.67974 l -0.084,-1.921323 c -0.54177,-12.399895 -7.8442,-23.620552 -18.89523,-29.033744 -3.12085,-1.528706 -6.44097,-2.520376 -10.18525,-3.042185 -1.63579,-0.227966 -6.40638,-0.227424 -8.08978,9.19e-4 -10.46125,1.419007 -19.33369,7.43609 -24.651453,16.71806 -2.61793,4.569501 -4.204664,10.047516 -4.428688,15.289535 l -0.08499,1.988738 h 8.505601 8.50561 l 1.30083,-4.011183 c 3.94711,-12.171043 4.68636,-14.361086 4.92976,-14.60449 0.33144,-0.331438 1.07671,-0.339602 1.47613,-0.01617 0.3637,0.294507 0.097,-1.069834 3.5827,18.328476 1.4691,8.175735 2.70449,14.864161 2.74531,14.863167 0.0408,-9.43e-4 2.10678,-5.414851 4.59102,-12.030798 z"
     id="path718" />
  <path
     style="fill:#0000ff;stroke:#000fcc;stroke-opacity:1;marker-end:url(#TriangleStart)"
     d="M 97.88635,90.875206 33.707421,165.30119"
     id="path1186" />
  <path
     style="fill:#0000ff;stroke:#000fcc;stroke-opacity:1;marker-end:url(#marker2814)"
     d="M 125.93092,93.032481 V 166.64949"
     id="path2804" />
  <path
     style="fill:#0000ff;stroke:#000fcc;stroke-opacity:1;marker-end:url(#marker2874)"
     d="m 149.93061,92.762822 62.29131,73.077688"
     id="path2858" />
</svg>
