<?xml version="1.0" encoding="UTF-8" standalone="no"?>
<svg
   width="256"
   height="256"
   overflow="hidden"
   version="1.1"
   id="svg913"
   sodipodi:docname="SearchChart.svg"
   inkscape:version="1.2.2 (732a01da63, 2022-12-09)"
   inkscape:export-filename="SearchChart.svg"
   inkscape:export-xdpi="96"
   inkscape:export-ydpi="96"
   xmlns:inkscape="http://www.inkscape.org/namespaces/inkscape"
   xmlns:sodipodi="http://sodipodi.sourceforge.net/DTD/sodipodi-0.dtd"
   xmlns="http://www.w3.org/2000/svg"
   xmlns:svg="http://www.w3.org/2000/svg">
  <sodipodi:namedview
     id="namedview915"
     pagecolor="#ffffff"
     bordercolor="#000000"
     borderopacity="0.25"
     inkscape:showpageshadow="2"
     inkscape:pageopacity="0.0"
     inkscape:pagecheckerboard="0"
     inkscape:deskcolor="#d1d1d1"
     showgrid="false"
     inkscape:zoom="0.92709556"
     inkscape:cx="477.8364"
     inkscape:cy="405.56769"
     inkscape:window-width="1920"
     inkscape:window-height="1129"
     inkscape:window-x="-8"
     inkscape:window-y="-8"
     inkscape:window-maximized="1"
     inkscape:current-layer="svg913" />
  <defs
     id="defs815">
    <clipPath
       id="clip0">
      <rect
         x="0"
         y="0"
         width="1280"
         height="720"
         id="rect776" />
    </clipPath>
    <clipPath
       id="clip1">
      <rect
         x="709"
         y="474"
         width="96"
         height="96"
         id="rect779" />
    </clipPath>
    <clipPath
       id="clip2">
      <rect
         x="709"
         y="474"
         width="96"
         height="96"
         id="rect782" />
    </clipPath>
    <clipPath
       id="clip3">
      <rect
         x="709"
         y="474"
         width="96"
         height="96"
         id="rect785" />
    </clipPath>
    <clipPath
       id="clip4">
      <rect
         x="575"
         y="474"
         width="96"
         height="96"
         id="rect788" />
    </clipPath>
    <clipPath
       id="clip5">
      <rect
         x="575"
         y="474"
         width="96"
         height="96"
         id="rect791" />
    </clipPath>
    <clipPath
       id="clip6">
      <rect
         x="575"
         y="474"
         width="96"
         height="96"
         id="rect794" />
    </clipPath>
    <clipPath
       id="clip7">
      <rect
         x="440"
         y="474"
         width="96"
         height="96"
         id="rect797" />
    </clipPath>
    <clipPath
       id="clip8">
      <rect
         x="440"
         y="474"
         width="96"
         height="96"
         id="rect800" />
    </clipPath>
    <clipPath
       id="clip9">
      <rect
         x="440"
         y="474"
         width="96"
         height="96"
         id="rect803" />
    </clipPath>
    <clipPath
       id="clip10">
      <rect
         x="559"
         y="237"
         width="162"
         height="161"
         id="rect806" />
    </clipPath>
    <clipPath
       id="clip11">
      <rect
         x="559"
         y="237"
         width="162"
         height="161"
         id="rect809" />
    </clipPath>
    <clipPath
       id="clip12">
      <rect
         x="559"
         y="237"
         width="162"
         height="161"
         id="rect812" />
    </clipPath>
  </defs>
  <g
     clip-path="url(#clip0)"
     id="g911"
     transform="matrix(0.72767173,0,0,0.75234542,-324.40734,-176.65076)">
    <g
       clip-path="url(#clip1)"
       id="g843">
      <g
         clip-path="url(#clip2)"
         id="g841">
        <g
           clip-path="url(#clip3)"
           id="g839">
          <path
             d="m 793,551 h -28 v -4 h -7 v -9 h 27 c 2.209,0 4,-1.791 4,-4 v -10 c -0.004,-1.153 -0.508,-2.248 -1.382,-3 0.874,-0.752 1.378,-1.847 1.382,-3 v -10 c -0.004,-1.153 -0.508,-2.248 -1.382,-3 0.874,-0.752 1.378,-1.847 1.382,-3 v -10 c 0,-2.209 -1.791,-4 -4,-4 h -56 c -2.209,0 -4,1.791 -4,4 v 10 c 0.004,1.153 0.508,2.248 1.382,3 -0.874,0.752 -1.378,1.847 -1.382,3 v 10 c 0.004,1.153 0.508,2.248 1.382,3 -0.874,0.752 -1.378,1.847 -1.382,3 v 10 c 0,2.209 1.791,4 4,4 h 27 v 9 h -7 v 4 h -28 v 2 h 28 v 4 h 16 v -4 h 28 z m -66,-49 v -10 c 0,-1.105 0.895,-2 2,-2 h 56 c 1.105,0 2,0.895 2,2 v 10 c 0,1.105 -0.895,2 -2,2 h -56 c -1.105,0 -2,-0.895 -2,-2 z m 0,16 v -10 c 0,-1.105 0.895,-2 2,-2 h 56 c 1.105,0 2,0.895 2,2 v 10 c 0,1.105 -0.895,2 -2,2 h -56 c -1.105,0 -2,-0.895 -2,-2 z m 0,16 v -10 c 0,-1.105 0.895,-2 2,-2 h 56 c 1.105,0 2,0.895 2,2 v 10 c 0,1.105 -0.895,2 -2,2 h -56 c -1.105,0 -2,-0.895 -2,-2 z m 36,21 h -12 v -6 h 12 z"
             id="path819" />
          <path
             d="m 737,497 c 0,1.105 -0.895,2 -2,2 -1.105,0 -2,-0.895 -2,-2 0,-1.105 0.895,-2 2,-2 1.105,0 2,0.895 2,2 z"
             id="path821" />
          <path
             d="m 747,497 c 0,1.105 -0.895,2 -2,2 -1.105,0 -2,-0.895 -2,-2 0,-1.105 0.895,-2 2,-2 1.105,0 2,0.895 2,2 z"
             id="path823" />
          <path
             d="m 757,497 c 0,1.105 -0.895,2 -2,2 -1.105,0 -2,-0.895 -2,-2 0,-1.105 0.895,-2 2,-2 1.105,0 2,0.895 2,2 z"
             id="path825" />
          <path
             d="m 737,513 c 0,1.105 -0.895,2 -2,2 -1.105,0 -2,-0.895 -2,-2 0,-1.105 0.895,-2 2,-2 1.105,0 2,0.895 2,2 z"
             id="path827" />
          <path
             d="m 747,513 c 0,1.105 -0.895,2 -2,2 -1.105,0 -2,-0.895 -2,-2 0,-1.105 0.895,-2 2,-2 1.105,0 2,0.895 2,2 z"
             id="path829" />
          <path
             d="m 757,513 c 0,1.105 -0.895,2 -2,2 -1.105,0 -2,-0.895 -2,-2 0,-1.105 0.895,-2 2,-2 1.105,0 2,0.895 2,2 z"
             id="path831" />
          <path
             d="m 737,529 c 0,1.105 -0.895,2 -2,2 -1.105,0 -2,-0.895 -2,-2 0,-1.105 0.895,-2 2,-2 1.105,0 2,0.895 2,2 z"
             id="path833" />
          <path
             d="m 747,529 c 0,1.105 -0.895,2 -2,2 -1.105,0 -2,-0.895 -2,-2 0,-1.105 0.895,-2 2,-2 1.105,0 2,0.895 2,2 z"
             id="path835" />
          <path
             d="m 757,529 c 0,1.105 -0.895,2 -2,2 -1.105,0 -2,-0.895 -2,-2 0,-1.105 0.895,-2 2,-2 1.105,0 2,0.895 2,2 z"
             id="path837" />
        </g>
      </g>
    </g>
    <g
       clip-path="url(#clip4)"
       id="g869">
      <g
         clip-path="url(#clip5)"
         id="g867">
        <g
           clip-path="url(#clip6)"
           id="g865">
          <path
             d="m 659,551 h -28 v -4 h -7 v -9 h 27 c 2.209,0 4,-1.791 4,-4 v -10 c -0.004,-1.153 -0.508,-2.248 -1.382,-3 0.874,-0.752 1.378,-1.847 1.382,-3 v -10 c -0.004,-1.153 -0.508,-2.248 -1.382,-3 0.874,-0.752 1.378,-1.847 1.382,-3 v -10 c 0,-2.209 -1.791,-4 -4,-4 h -56 c -2.209,0 -4,1.791 -4,4 v 10 c 0.004,1.153 0.508,2.248 1.382,3 -0.874,0.752 -1.378,1.847 -1.382,3 v 10 c 0.004,1.153 0.508,2.248 1.382,3 -0.874,0.752 -1.378,1.847 -1.382,3 v 10 c 0,2.209 1.791,4 4,4 h 27 v 9 h -7 v 4 h -28 v 2 h 28 v 4 h 16 v -4 h 28 z m -66,-49 v -10 c 0,-1.105 0.895,-2 2,-2 h 56 c 1.105,0 2,0.895 2,2 v 10 c 0,1.105 -0.895,2 -2,2 h -56 c -1.105,0 -2,-0.895 -2,-2 z m 0,16 v -10 c 0,-1.105 0.895,-2 2,-2 h 56 c 1.105,0 2,0.895 2,2 v 10 c 0,1.105 -0.895,2 -2,2 h -56 c -1.105,0 -2,-0.895 -2,-2 z m 0,16 v -10 c 0,-1.105 0.895,-2 2,-2 h 56 c 1.105,0 2,0.895 2,2 v 10 c 0,1.105 -0.895,2 -2,2 h -56 c -1.105,0 -2,-0.895 -2,-2 z m 36,21 h -12 v -6 h 12 z"
             id="path845" />
          <path
             d="m 603,497 c 0,1.105 -0.895,2 -2,2 -1.105,0 -2,-0.895 -2,-2 0,-1.105 0.895,-2 2,-2 1.105,0 2,0.895 2,2 z"
             id="path847" />
          <path
             d="m 613,497 c 0,1.105 -0.895,2 -2,2 -1.105,0 -2,-0.895 -2,-2 0,-1.105 0.895,-2 2,-2 1.105,0 2,0.895 2,2 z"
             id="path849" />
          <path
             d="m 623,497 c 0,1.105 -0.895,2 -2,2 -1.105,0 -2,-0.895 -2,-2 0,-1.105 0.895,-2 2,-2 1.105,0 2,0.895 2,2 z"
             id="path851" />
          <path
             d="m 603,513 c 0,1.105 -0.895,2 -2,2 -1.105,0 -2,-0.895 -2,-2 0,-1.105 0.895,-2 2,-2 1.105,0 2,0.895 2,2 z"
             id="path853" />
          <path
             d="m 613,513 c 0,1.105 -0.895,2 -2,2 -1.105,0 -2,-0.895 -2,-2 0,-1.105 0.895,-2 2,-2 1.105,0 2,0.895 2,2 z"
             id="path855" />
          <path
             d="m 623,513 c 0,1.105 -0.895,2 -2,2 -1.105,0 -2,-0.895 -2,-2 0,-1.105 0.895,-2 2,-2 1.105,0 2,0.895 2,2 z"
             id="path857" />
          <path
             d="m 603,529 c 0,1.105 -0.895,2 -2,2 -1.105,0 -2,-0.895 -2,-2 0,-1.105 0.895,-2 2,-2 1.105,0 2,0.895 2,2 z"
             id="path859" />
          <path
             d="m 613,529 c 0,1.105 -0.895,2 -2,2 -1.105,0 -2,-0.895 -2,-2 0,-1.105 0.895,-2 2,-2 1.105,0 2,0.895 2,2 z"
             id="path861" />
          <path
             d="m 623,529 c 0,1.105 -0.895,2 -2,2 -1.105,0 -2,-0.895 -2,-2 0,-1.105 0.895,-2 2,-2 1.105,0 2,0.895 2,2 z"
             id="path863" />
        </g>
      </g>
    </g>
    <g
       clip-path="url(#clip7)"
       id="g895">
      <g
         clip-path="url(#clip8)"
         id="g893">
        <g
           clip-path="url(#clip9)"
           id="g891">
          <path
             d="m 524,551 h -28 v -4 h -7 v -9 h 27 c 2.209,0 4,-1.791 4,-4 v -10 c -0.004,-1.153 -0.508,-2.248 -1.382,-3 0.874,-0.752 1.378,-1.847 1.382,-3 v -10 c -0.004,-1.153 -0.508,-2.248 -1.382,-3 0.874,-0.752 1.378,-1.847 1.382,-3 v -10 c 0,-2.209 -1.791,-4 -4,-4 h -56 c -2.209,0 -4,1.791 -4,4 v 10 c 0.004,1.153 0.508,2.248 1.382,3 -0.874,0.752 -1.378,1.847 -1.382,3 v 10 c 0.004,1.153 0.508,2.248 1.382,3 -0.874,0.752 -1.378,1.847 -1.382,3 v 10 c 0,2.209 1.791,4 4,4 h 27 v 9 h -7 v 4 h -28 v 2 h 28 v 4 h 16 v -4 h 28 z m -66,-49 v -10 c 0,-1.105 0.895,-2 2,-2 h 56 c 1.105,0 2,0.895 2,2 v 10 c 0,1.105 -0.895,2 -2,2 h -56 c -1.105,0 -2,-0.895 -2,-2 z m 0,16 v -10 c 0,-1.105 0.895,-2 2,-2 h 56 c 1.105,0 2,0.895 2,2 v 10 c 0,1.105 -0.895,2 -2,2 h -56 c -1.105,0 -2,-0.895 -2,-2 z m 0,16 v -10 c 0,-1.105 0.895,-2 2,-2 h 56 c 1.105,0 2,0.895 2,2 v 10 c 0,1.105 -0.895,2 -2,2 h -56 c -1.105,0 -2,-0.895 -2,-2 z m 36,21 h -12 v -6 h 12 z"
             id="path871" />
          <path
             d="m 468,497 c 0,1.105 -0.895,2 -2,2 -1.105,0 -2,-0.895 -2,-2 0,-1.105 0.895,-2 2,-2 1.105,0 2,0.895 2,2 z"
             id="path873" />
          <path
             d="m 478,497 c 0,1.105 -0.895,2 -2,2 -1.105,0 -2,-0.895 -2,-2 0,-1.105 0.895,-2 2,-2 1.105,0 2,0.895 2,2 z"
             id="path875" />
          <path
             d="m 488,497 c 0,1.105 -0.895,2 -2,2 -1.105,0 -2,-0.895 -2,-2 0,-1.105 0.895,-2 2,-2 1.105,0 2,0.895 2,2 z"
             id="path877" />
          <path
             d="m 468,513 c 0,1.105 -0.895,2 -2,2 -1.105,0 -2,-0.895 -2,-2 0,-1.105 0.895,-2 2,-2 1.105,0 2,0.895 2,2 z"
             id="path879" />
          <path
             d="m 478,513 c 0,1.105 -0.895,2 -2,2 -1.105,0 -2,-0.895 -2,-2 0,-1.105 0.895,-2 2,-2 1.105,0 2,0.895 2,2 z"
             id="path881" />
          <path
             d="m 488,513 c 0,1.105 -0.895,2 -2,2 -1.105,0 -2,-0.895 -2,-2 0,-1.105 0.895,-2 2,-2 1.105,0 2,0.895 2,2 z"
             id="path883" />
          <path
             d="m 468,529 c 0,1.105 -0.895,2 -2,2 -1.105,0 -2,-0.895 -2,-2 0,-1.105 0.895,-2 2,-2 1.105,0 2,0.895 2,2 z"
             id="path885" />
          <path
             d="m 478,529 c 0,1.105 -0.895,2 -2,2 -1.105,0 -2,-0.895 -2,-2 0,-1.105 0.895,-2 2,-2 1.105,0 2,0.895 2,2 z"
             id="path887" />
          <path
             d="m 488,529 c 0,1.105 -0.895,2 -2,2 -1.105,0 -2,-0.895 -2,-2 0,-1.105 0.895,-2 2,-2 1.105,0 2,0.895 2,2 z"
             id="path889" />
        </g>
      </g>
    </g>
    <g
       clip-path="url(#clip10)"
       id="g903">
      <g
         clip-path="url(#clip11)"
         id="g901">
        <g
           clip-path="url(#clip12)"
           id="g899">
          <path
             d="m 143.233,127.49 -23.575,-23.615 c -3.609,-3.616 -9.703,-3.508 -14.221,0 L 98.4565,96.8952 C 116.685,77.2057 115.501,46.4673 95.8113,28.2387 76.122,10.0103 45.3834,11.1945 27.155,30.884 8.92644,50.5733 10.1107,81.3119 29.8001,99.5404 48.5319,116.882 77.49,116.77 96.0868,99.2833 l 6.9762,6.9787 c -1.493,1.876 -2.411,4.145 -2.643,6.532 -0.312,2.815 0.654,5.621 2.633,7.647 l 23.567,23.607 c 1.791,1.759 4.214,2.726 6.725,2.683 3.299,-0.057 6.442,-1.412 8.748,-3.771 2.136,-2.081 3.47,-4.849 3.766,-7.817 0.315,-2.816 -0.649,-5.624 -2.626,-7.653 z M 30.8919,31.7103 C 41.3674,21.2071 56.327,16.5071 70.9272,19.1322 c 6.2913,1.083 12.2691,3.5302 17.5138,7.1695 12.362,8.4448 19.749,22.4561 19.731,37.4275 H 90.5625 c -0.4894,0 -0.9543,0.2138 -1.2729,0.5853 l -7.9695,9.2977 c -0.0049,0.0079 -0.0153,0.0103 -0.0231,0.0054 -0.0022,-0.0014 -0.0041,-0.0032 -0.0054,-0.0054 L 75.4117,51.5569 C 75.1729,50.662 74.2539,50.13 73.359,50.3689 c -0.5198,0.1386 -0.9414,0.518 -1.1337,1.0203 L 59.9675,83.0861 c -0.0029,0.0087 -0.0124,0.0135 -0.0212,0.0107 -0.005,-0.0017 -0.009,-0.0057 -0.0107,-0.0107 L 51.9611,39.9448 C 51.7924,39.0341 50.9174,38.4325 50.0066,38.6011 49.4064,38.7123 48.914,39.1409 48.721,39.72 L 40.7179,63.7292 H 17.6496 C 17.6287,51.7196 22.3943,40.1968 30.8919,31.7103 Z m 6.9599,69.7667 C 26.2056,93.7314 18.7979,81.0335 17.7871,67.0833 h 24.14 c 0.7221,2e-4 1.3633,-0.462 1.5915,-1.1471 l 6.3075,-18.9225 c 0.0029,-0.0087 0.0125,-0.0136 0.0212,-0.0108 0.005,0.0017 0.009,0.0057 0.0107,0.0108 l 7.8689,42.5543 c 0.1363,0.7382 0.7468,1.2959 1.4943,1.3651 0.052,0 0.1039,0 0.1559,0 0.6923,-3e-4 1.3132,-0.4261 1.5631,-1.0716 L 73.4797,57.4368 c 0.0029,-0.0088 0.0124,-0.0136 0.0212,-0.0108 0.005,0.0017 0.009,0.0057 0.0107,0.0108 l 5.3667,20.125 c 0.2391,0.8948 1.1583,1.4263 2.0532,1.1872 0.3267,-0.0874 0.6195,-0.2714 0.8397,-0.5282 L 91.334,67.0833 h 16.7 c -1.828,24.9319 -23.5219,43.6607 -48.4538,41.8327 -1.5434,-0.114 -3.0799,-0.306 -4.6037,-0.576 -6.1323,-1.041 -11.9711,-3.381 -17.1247,-6.863 z m 101.8792,39.101 c -3.268,3.259 -8.083,3.753 -10.733,1.1 l -23.572,-23.611 c -1.272,-1.33 -1.882,-3.16 -1.663,-4.988 0.227,-2.179 1.215,-4.208 2.79,-5.731 3.267,-3.26 8.082,-3.755 10.734,-1.1 l 23.573,23.612 c 1.272,1.33 1.882,3.16 1.664,4.988 -0.228,2.179 -1.217,4.208 -2.793,5.73 z"
             transform="matrix(1.00621,0,0,1,559,237)"
             id="path897" />
        </g>
      </g>
    </g>
    <path
       d="M 0.240881,-0.230408 82.7257,86.0037 82.2439,86.4645 -0.240881,0.230408 Z M 84.4536,82.5055 l 2.6392,8.546 -8.4203,-3.0162 z"
       fill="#4472c4"
       transform="matrix(-1,0,0,1,588.593,368.5)"
       id="path905" />
    <path
       d="M 0.333299,-0.00475255 1.50775,82.3603 0.841152,82.3698 -0.333299,0.00475255 Z M 5.15503,80.9747 1.2695,89.031 -2.84415,81.0888 Z"
       fill="#4472c4"
       transform="matrix(-1,0,0,1,624.77,370.5)"
       id="path907" />
    <path
       d="m 656.741,368.269 84.705,88.262 -0.481,0.462 -84.705,-88.262 z m 86.427,84.762 2.654,8.541 -8.426,-3.002 z"
       fill="#4472c4"
       id="path909" />
  </g>
</svg>
