<?xml version="1.0" encoding="UTF-8" standalone="no"?>
<svg
   width="256"
   height="256"
   overflow="hidden"
   version="1.1"
   id="svg306"
   sodipodi:docname="Spaceship.svg"
   inkscape:version="1.2.2 (732a01da63, 2022-12-09)"
   xmlns:inkscape="http://www.inkscape.org/namespaces/inkscape"
   xmlns:sodipodi="http://sodipodi.sourceforge.net/DTD/sodipodi-0.dtd"
   xmlns="http://www.w3.org/2000/svg"
   xmlns:svg="http://www.w3.org/2000/svg">
  <sodipodi:namedview
     id="namedview19"
     pagecolor="#ffffff"
     bordercolor="#000000"
     borderopacity="0.25"
     inkscape:showpageshadow="2"
     inkscape:pageopacity="0.0"
     inkscape:pagecheckerboard="0"
     inkscape:deskcolor="#d1d1d1"
     showgrid="false"
     inkscape:zoom="0.921875"
     inkscape:cx="128"
     inkscape:cy="128"
     inkscape:window-width="1920"
     inkscape:window-height="1129"
     inkscape:window-x="-8"
     inkscape:window-y="-8"
     inkscape:window-maximized="1"
     inkscape:current-layer="svg306" />
  <defs
     id="defs284">
    <clipPath
       id="clip2">
      <rect
         x="12"
         y="-4"
         width="724"
         height="724"
         id="rect278" />
    </clipPath>
    <clipPath
       id="clip3">
      <rect
         x="12"
         y="-4"
         width="724"
         height="724"
         id="rect281" />
    </clipPath>
    <clipPath
       clipPathUnits="userSpaceOnUse"
       id="clipPath323">
      <g
         id="g327">
        <rect
           x="0"
           y="0"
           width="1280"
           height="720"
           id="rect325" />
      </g>
    </clipPath>
  </defs>
  <g
     clip-path="url(#clipPath323)"
     id="g302"
     transform="matrix(0.39799574,0,0,0.39799574,-21.426043,-11.977251)">
    <g
       clip-path="url(#clip2)"
       id="g300">
      <g
         clip-path="url(#clip3)"
         id="g298">
        <path
           d="M 674.158,59.35 C 663.6,48.7917 595.725,60.8583 539.162,75.9417 c 20.363,12.0666 41.48,28.6583 61.842,49.0203 21.117,21.117 37.708,42.234 49.775,63.35 15.083,-58.07 34.692,-118.4037 23.379,-128.962 z"
           id="path288" />
        <path
           d="m 254.087,274.288 -25.641,-9.805 c -10.559,-3.771 -21.871,-1.508 -30.167,6.034 L 78.3667,390.429 c -19.6084,19.609 -1.5084,53.546 25.6413,47.513 l 100.304,-22.625 c 8.296,-37.709 21.871,-88.238 49.775,-141.029 z"
           id="path290" />
        <path
           d="m 453.942,471.125 c -50.529,26.396 -98.796,40.725 -138.013,48.267 L 292.55,626.483 c -6.033,27.15 27.15,46.004 47.512,25.642 L 459.975,532.212 c 7.542,-7.541 10.558,-19.608 6.033,-30.166 z"
           id="path292" />
        <path
           d="M 498.438,89.5167 C 453.942,107.617 403.413,138.537 354.392,187.558 264.646,277.304 238.25,385.904 230.708,447.746 l 46.759,46.758 c 61.841,-7.542 171.196,-33.183 260.941,-122.929 49.021,-49.021 79.942,-98.796 98.042,-143.292 -9.804,-24.887 -29.413,-54.3 -57.317,-82.958 -27.15,-26.396 -55.808,-46.0042 -80.695,-55.8083 z M 536.9,252.417 c -17.346,17.345 -46.004,17.345 -64.104,0 -17.346,-17.346 -17.346,-46.005 0,-64.105 17.346,-17.345 46.004,-17.345 64.104,0 17.346,18.1 17.346,46.759 0,64.105 z"
           id="path294" />
        <path
           d="m 229.954,495.258 c -12.067,-12.066 -10.558,-32.429 -35.446,-7.541 -24.887,24.887 -61.841,81.45 -50.529,93.516 12.067,12.067 68.629,-25.641 93.517,-50.529 24.887,-25.642 4.525,-24.133 -7.542,-35.446 z"
           id="path296" />
      </g>
    </g>
  </g>
  <path
     style="fill:#000000;stroke-width:1.08475"
     d="m 79.868555,174.78454 -9.032701,-9.07987 2.310869,-12.07854 c 1.270978,-6.64319 3.770276,-16.59114 5.553995,-22.10657 4.493316,-13.89374 15.844781,-36.33808 24.273552,-47.994136 14.90265,-20.608731 39.04295,-41.457811 61.5308,-53.141875 11.24332,-5.841717 12.08744,-6.106876 15.25893,-4.793203 12.15065,5.032966 32.57698,22.788891 41.6905,36.240162 5.28778,7.804601 9.05397,15.016213 9.05397,17.336797 0,2.779842 -8.02722,17.89169 -15.02216,28.280325 -21.84609,32.44505 -52.71079,56.02825 -89.2743,68.21301 -10.5046,3.50065 -30.734625,8.20377 -35.287711,8.20377 -1.112674,0 -6.087759,-4.08595 -11.055744,-9.07987 z M 189.29917,91.389831 c 5.37951,-3.661266 7.82735,-7.643924 8.40721,-13.678614 0.66149,-6.884278 -2.43731,-13.706277 -7.90805,-17.409542 -5.36298,-3.63032 -14.63231,-3.774188 -20.22984,-0.313984 -9.29057,5.74312 -11.23262,20.194236 -3.80132,28.286205 5.46131,5.946832 17.10685,7.488851 23.532,3.115935 z"
     id="path302" />
  <path
     style="fill:#000000;stroke-width:1.08475"
     d="m 79.892503,174.85314 -9.056649,-9.14847 2.310869,-12.07854 c 1.270978,-6.64319 3.770276,-16.59114 5.553995,-22.10657 4.493316,-13.89374 15.844781,-36.33808 24.273552,-47.994136 14.90265,-20.608731 39.04295,-41.457811 61.5308,-53.141875 13.72478,-7.131013 12.81725,-7.188157 26.37212,1.660561 14.53577,9.489048 28.59754,24.632563 36.36137,39.158577 1.79846,3.364868 3.26991,6.948346 3.26991,7.963286 0,2.751654 -9.02819,19.709049 -15.48651,29.087837 -20.78207,30.17983 -48.86937,52.52932 -81.44008,64.80311 -12.08471,4.55394 -29.26879,9.08494 -38.856765,10.24555 l -5.775962,0.69916 z M 187.55287,92.318487 c 4.54615,-1.899504 9.241,-7.955825 10.05479,-12.970593 2.08586,-12.853668 -9.00442,-24.043349 -21.51307,-21.705872 -14.0113,2.618276 -19.9305,20.175049 -10.32742,30.631874 4.90364,5.339584 14.44625,7.111205 21.7857,4.044591 z"
     id="path304" />
  <path
     style="fill:#1a1a1a;stroke-width:1.08475"
     d="m 79.923906,174.84018 -8.977349,-9.02423 1.141682,-7.14664 C 75.966535,134.39214 86.090532,108.61377 99.895603,87.864407 114.80663,65.452765 139.79391,43.22278 164.50754,30.382265 c 13.7162,-7.126554 12.82554,-7.181514 26.3073,1.623358 9.37809,6.124787 19.46411,15.33554 26.54926,24.245312 5.9787,7.518382 13.14437,19.976888 13.14437,22.853281 0,2.812073 -8.97781,19.70029 -15.48651,29.131754 -22.49448,32.59578 -52.42419,55.33611 -88.76347,67.4417 -11.17756,3.72355 -30.265176,8.18674 -35.012016,8.18674 -1.496451,0 -5.594247,-3.266 -11.322568,-9.02423 z M 186.77684,92.673506 c 7.45815,-2.825815 11.99304,-11.396915 10.67618,-20.178351 -0.96843,-6.457949 -6.64106,-12.590475 -13.30648,-14.385288 -16.52345,-4.4493 -29.73737,15.036464 -19.39336,28.598172 4.84438,6.351304 14.26825,8.903913 22.02366,5.965467 z"
     id="path306" />
  <path
     style="fill:#1a1a1a;stroke-width:1.08475"
     d="m 99.392326,247.76024 c -4.790646,-4.46317 -4.763884,-6.05193 0.505504,-30.00958 2.71939,-12.36392 5.02943,-22.51431 5.13343,-22.55643 0.10399,-0.0421 4.09416,-0.9639 8.86705,-2.0484 11.05642,-2.51226 24.6513,-7.25114 36.11329,-12.58829 10.23341,-4.76508 8.63114,-5.53467 12.76261,6.13004 1.64433,4.64256 1.74492,6.05531 0.62387,8.76176 -0.7351,1.7747 -12.92882,14.78224 -27.09714,28.90564 -25.05068,24.97127 -25.88056,25.67892 -30.11435,25.67892 -2.92088,0 -5.15698,-0.7483 -6.794264,-2.27366 z"
     id="path446" />
  <path
     style="fill:#1a1a1a;stroke-width:1.08475"
     d="m 35.931585,217.99448 c -0.87674,-2.28475 1.61523,-9.1054 5.982716,-16.37501 4.726415,-7.86704 14.880667,-19.99277 18.393222,-21.96432 2.661247,-1.49372 2.985631,-1.31305 9.932339,5.53182 l 7.181243,7.07597 -2.371569,3.44868 c -5.42626,7.89073 -29.561168,23.9494 -35.994061,23.9494 -1.366409,0 -2.77216,-0.74994 -3.12389,-1.66654 z"
     id="path448" />
  <path
     style="fill:#1a1a1a;stroke-width:1.08475"
     d="m 10.738983,158.48136 c -2.7060208,-2.70602 -3.6881355,-4.64254 -3.6881355,-7.27219 0,-3.23338 2.6166786,-6.20841 26.7431355,-30.40564 14.708724,-14.75188 27.880063,-27.106943 29.269642,-27.455704 2.112739,-0.530264 13.748279,2.62792 15.263176,4.142817 0.25472,0.25472 -0.783557,2.923347 -2.307284,5.930267 -4.776296,9.42557 -9.373591,21.91783 -13.203135,35.87697 -2.032048,7.40706 -3.817366,13.54469 -3.967372,13.63919 -0.728685,0.45903 -41.68615,9.29204 -42.957485,9.26433 -0.805423,-0.0175 -3.124067,-1.69157 -5.152542,-3.72004 z"
     id="path450" />
  <path
     style="fill:#1a1a1a;stroke-width:1.08475"
     d="m 37.694915,218.8623 c -4.725532,-1.62691 4.352605,-19.23327 17.119868,-33.20269 3.083465,-3.3738 6.33812,-6.13419 7.232566,-6.13419 0.894447,0 4.603504,2.87757 8.242349,6.39461 l 6.616082,6.3946 -2.817122,3.69344 c -6.746125,8.84462 -31.653974,24.48604 -36.393743,22.85423 z"
     id="path452" />
  <path
     style="fill:#1a1a1a;stroke-width:1.08475"
     d="M 233.43892,55.394383 C 228.8029,48.056046 212.81869,31.64282 203.38687,24.535734 l -8.43716,-6.357596 13.16921,-2.85911 c 16.95951,-3.682006 29.46055,-5.3533584 33.86321,-4.527413 5.68783,1.067043 6.38344,2.730344 4.91106,11.743138 -1.55515,9.519531 -8.8523,37.669399 -9.76414,37.666697 -0.35996,-0.0011 -2.02052,-2.164246 -3.69013,-4.807067 z"
     id="path454" />
</svg>
