<?xml version="1.0" encoding="UTF-8" standalone="no"?>
<svg
   width="256"
   height="256"
   overflow="hidden"
   version="1.1"
   id="svg306"
   sodipodi:docname="Spaceship.svg"
   inkscape:version="1.2.2 (732a01da63, 2022-12-09)"
   xmlns:inkscape="http://www.inkscape.org/namespaces/inkscape"
   xmlns:sodipodi="http://sodipodi.sourceforge.net/DTD/sodipodi-0.dtd"
   xmlns="http://www.w3.org/2000/svg"
   xmlns:svg="http://www.w3.org/2000/svg">
  <sodipodi:namedview
     id="namedview308"
     pagecolor="#ffffff"
     bordercolor="#000000"
     borderopacity="0.25"
     inkscape:showpageshadow="2"
     inkscape:pageopacity="0.0"
     inkscape:pagecheckerboard="0"
     inkscape:deskcolor="#d1d1d1"
     showgrid="false"
     inkscape:zoom="0.92709556"
     inkscape:cx="506.95961"
     inkscape:cy="434.6909"
     inkscape:window-width="1920"
     inkscape:window-height="1129"
     inkscape:window-x="-8"
     inkscape:window-y="-8"
     inkscape:window-maximized="1"
     inkscape:current-layer="svg306" />
  <defs
     id="defs284">
    <clipPath
       id="clip1">
      <rect
         x="12"
         y="-4"
         width="724"
         height="724"
         id="rect275" />
    </clipPath>
    <clipPath
       id="clip2">
      <rect
         x="12"
         y="-4"
         width="724"
         height="724"
         id="rect278" />
    </clipPath>
    <clipPath
       id="clip3">
      <rect
         x="12"
         y="-4"
         width="724"
         height="724"
         id="rect281" />
    </clipPath>
    <clipPath
       clipPathUnits="userSpaceOnUse"
       id="clipPath323">
      <g
         id="g327">
        <rect
           x="0"
           y="0"
           width="1280"
           height="720"
           id="rect325" />
      </g>
    </clipPath>
    <clipPath
       clipPathUnits="userSpaceOnUse"
       id="clipPath329">
      <g
         id="g333">
        <rect
           x="0"
           y="0"
           width="1280"
           height="720"
           id="rect331" />
      </g>
    </clipPath>
  </defs>
  <g
     clip-path="url(#clipPath323)"
     id="g302"
     transform="matrix(0.39799574,0,0,0.39799574,-21.426043,-11.977251)">
    <g
       clip-path="url(#clip2)"
       id="g300">
      <g
         clip-path="url(#clip3)"
         id="g298">
        <path
           d="M 674.158,59.35 C 663.6,48.7917 595.725,60.8583 539.162,75.9417 c 20.363,12.0666 41.48,28.6583 61.842,49.0203 21.117,21.117 37.708,42.234 49.775,63.35 15.083,-58.07 34.692,-118.4037 23.379,-128.962 z"
           id="path288" />
        <path
           d="m 254.087,274.288 -25.641,-9.805 c -10.559,-3.771 -21.871,-1.508 -30.167,6.034 L 78.3667,390.429 c -19.6084,19.609 -1.5084,53.546 25.6413,47.513 l 100.304,-22.625 c 8.296,-37.709 21.871,-88.238 49.775,-141.029 z"
           id="path290" />
        <path
           d="m 453.942,471.125 c -50.529,26.396 -98.796,40.725 -138.013,48.267 L 292.55,626.483 c -6.033,27.15 27.15,46.004 47.512,25.642 L 459.975,532.212 c 7.542,-7.541 10.558,-19.608 6.033,-30.166 z"
           id="path292" />
        <path
           d="M 498.438,89.5167 C 453.942,107.617 403.413,138.537 354.392,187.558 264.646,277.304 238.25,385.904 230.708,447.746 l 46.759,46.758 c 61.841,-7.542 171.196,-33.183 260.941,-122.929 49.021,-49.021 79.942,-98.796 98.042,-143.292 -9.804,-24.887 -29.413,-54.3 -57.317,-82.958 -27.15,-26.396 -55.808,-46.0042 -80.695,-55.8083 z M 536.9,252.417 c -17.346,17.345 -46.004,17.345 -64.104,0 -17.346,-17.346 -17.346,-46.005 0,-64.105 17.346,-17.345 46.004,-17.345 64.104,0 17.346,18.1 17.346,46.759 0,64.105 z"
           id="path294" />
        <path
           d="m 229.954,495.258 c -12.067,-12.066 -10.558,-32.429 -35.446,-7.541 -24.887,24.887 -61.841,81.45 -50.529,93.516 12.067,12.067 68.629,-25.641 93.517,-50.529 24.887,-25.642 4.525,-24.133 -7.542,-35.446 z"
           id="path296" />
      </g>
    </g>
  </g>
</svg>
