<?xml version="1.0" encoding="UTF-8" standalone="no"?>
<svg
   width="256"
   height="256"
   overflow="hidden"
   version="1.1"
   id="svg30"
   sodipodi:docname="upwardschart.svg"
   inkscape:version="1.2.2 (732a01da63, 2022-12-09)"
   xmlns:inkscape="http://www.inkscape.org/namespaces/inkscape"
   xmlns:sodipodi="http://sodipodi.sourceforge.net/DTD/sodipodi-0.dtd"
   xmlns="http://www.w3.org/2000/svg"
   xmlns:svg="http://www.w3.org/2000/svg">
  <sodipodi:namedview
     id="namedview32"
     pagecolor="#ffffff"
     bordercolor="#000000"
     borderopacity="0.25"
     inkscape:showpageshadow="2"
     inkscape:pageopacity="0.0"
     inkscape:pagecheckerboard="0"
     inkscape:deskcolor="#d1d1d1"
     showgrid="false"
     inkscape:zoom="2.6222222"
     inkscape:cx="112.5"
     inkscape:cy="120.88983"
     inkscape:window-width="1920"
     inkscape:window-height="1129"
     inkscape:window-x="-8"
     inkscape:window-y="-8"
     inkscape:window-maximized="1"
     inkscape:current-layer="svg30" />
  <defs
     id="defs14">
    <clipPath
       id="clip1">
      <rect
         x="26"
         y="14"
         width="693"
         height="692"
         id="rect5" />
    </clipPath>
    <clipPath
       id="clip2">
      <rect
         x="26"
         y="14"
         width="693"
         height="692"
         id="rect8" />
    </clipPath>
    <clipPath
       id="clip3">
      <rect
         x="26"
         y="14"
         width="693"
         height="692"
         id="rect11" />
    </clipPath>
    <clipPath
       clipPathUnits="userSpaceOnUse"
       id="clipPath202">
      <g
         id="g206"
         transform="translate(79.322034,125.08475)">
        <rect
           x="-79.322037"
           y="-125.08475"
           width="1280"
           height="720"
           id="rect204" />
      </g>
    </clipPath>
    <clipPath
       clipPathUnits="userSpaceOnUse"
       id="clipPath208">
      <g
         id="g212">
        <rect
           x="-79.322037"
           y="-125.08475"
           width="1280"
           height="720"
           id="rect210" />
      </g>
    </clipPath>
  </defs>
  <g
     clip-path="url(#clipPath202)"
     id="g26"
     transform="matrix(0.48998662,0,0,0.48998662,-55.352013,-48.138706)">
    <g
       clip-path="url(#clip2)"
       id="g24">
      <g
         clip-path="url(#clip3)"
         id="g22">
        <path
           d="m 281.125,378.091 38.204,35.523 53.652,-52.159 33.569,-33.476 38.298,33.793 129.887,-129.938 c 0.028,-0.028 0.074,-0.027 0.101,0.001 0.013,0.014 0.021,0.031 0.021,0.05 v 61.732 h 14.417 v -86.5 h -86.305 v 14.417 h 61.494 c 0.04,-0.004 0.075,0.026 0.079,0.065 10e-4,0.021 -0.006,0.042 -0.021,0.057 l -120.307,120.315 -38.298,-33.793 -43.012,43.012 -43.748,42.529 -38.363,-35.652 -112.579,112.587 10.192,10.192 z"
           transform="matrix(1.00145,0,0,1,26,14)"
           id="path18" />
        <path
           d="M 115.636,576.667 V 100.917 H 101.219 V 591.083 H 591.17 v -14.416 z"
           transform="matrix(1.00145,0,0,1,26,14)"
           id="path20" />
      </g>
    </g>
  </g>
  <path
     style="fill:#000000;stroke-width:0.381356"
     d="M 7.0550847,128.13559 V 8.1991525 h 3.4322033 3.432203 V 124.89407 241.58898 H 130.61441 247.30932 v 3.24153 3.24152 H 127.1822 7.0550847 Z"
     id="path502" />
  <path
     style="fill:#000000;stroke-width:0.381356"
     d="m 42.711826,191.63132 -2.275102,-2.29909 27.259451,-27.26146 c 14.992698,-14.9938 27.395243,-27.26145 27.561205,-27.26145 0.165966,0 4.443533,3.8528 9.5057,8.56178 l 9.20395,8.56177 7.23679,-6.94101 c 3.98023,-3.81756 13.60598,-13.22626 21.39056,-20.90823 l 14.15377,-13.96722 1.73839,1.57315 c 0.95611,0.86523 5.11923,4.54904 9.25137,8.18623 l 7.51298,6.61309 29.73684,-29.449952 c 16.35527,-16.197471 29.73685,-29.598676 29.73685,-29.780455 0,-0.181779 -6.86441,-0.330507 -15.25424,-0.330507 H 204.2161 v -3.241525 -3.241526 h 20.97458 20.97457 v 20.974576 20.974579 h -3.24152 -3.24153 V 87.330508 c 0,-8.284957 -0.12832,-15.063559 -0.28516,-15.063559 -0.15684,0 -14.55367,14.267731 -31.99294,31.706071 l -31.70778,31.70607 -9.39422,-8.28281 -9.39423,-8.28281 -14.61691,14.42631 c -8.03931,7.93448 -17.68786,17.36295 -21.44123,20.95215 l -6.82431,6.52583 -9.15254,-8.52003 c -5.033897,-4.68602 -9.323667,-8.52359 -9.532822,-8.52795 -0.209154,-0.004 -11.624171,11.23501 -25.366704,24.97636 l -24.986425,24.98427 z"
     id="path504" />
</svg>
